#N canvas 251 135 1108 627 10;
#X declare -path .;
#X declare -path rj;
#X declare -path ../pd;
#X declare -path ../../pd;
#X declare -path percsamples;
#X declare -path fieldrecordings;
#N canvas 0 22 588 274 LICENSE 0;
#X text 79 84 (c) 2008 Reality Jockey;
#X text 57 36 Released under the GNU General Public License ver. 3
or later. See the file LICENSE.txt for the full text.;
#X restore 811 496 pd LICENSE;
#X obj 811 518 OVERVIEW;
#X obj 814 450 declare -path .;
#X obj 811 473 declare -path rj;
#N canvas 0 22 448 215 more_paths 0;
#X text 27 19 You can add more paths here as well \, like the path
to soundoutput.pd on your computer etc.;
#X obj 36 57 declare -path ../pd;
#X obj 35 79 declare -path ../../pd;
#X obj 35 103 declare -path percsamples;
#X obj 35 126 declare -path fieldrecordings;
#X restore 947 470 pd more_paths;
#X obj 578 -7 tgl 15 0 empty empty empty 17 7 0 10 -262144 -1 -1 0
1;
#X obj 694 -7 tgl 15 0 empty empty empty 17 7 0 10 -262144 -1 -1 0
1;
#X obj 808 -5 tgl 15 0 empty empty empty 17 7 0 10 -262144 -1 -1 0
1;
#X obj 933 -4 tgl 15 0 empty empty empty 17 7 0 10 -262144 -1 -1 0
1;
#X obj 578 12 s but1;
#X obj 694 11 s but2;
#X obj 808 15 s but3;
#X obj 933 16 s but4;
#N canvas 56 69 1054 771 bellsong 0;
#X obj 407 33 inlet;
#X obj 32 504 s_playtable;
#X obj 32 401 random 50;
#X obj 32 444 / 100;
#X obj 32 464 list append;
#X obj 167 537 / 100;
#X msg 114 472 0-alm;
#X obj 32 484 list prepend;
#X obj 32 423 + 40;
#X obj 167 517 random 20;
#X obj 167 558 + 0.4;
#X obj 373 744 outlet~;
#X obj 423 743 outlet~;
#X obj 109 383 / 130.8;
#X obj 109 362 mtof;
#X obj 109 341 m_minorscale 36;
#X obj 109 320 random 24;
#X obj 155 239 bng 15 250 50 0 empty empty empty 17 7 0 10 -262144
-1 -1;
#X obj 109 403 * -1;
#X obj 109 443 list append 3000;
#X obj 207 341 / 1000;
#X obj 109 423 * 1;
#X obj 206 321 random 15;
#X obj 206 361 + 0.99;
#X obj 157 472 loadbang;
#X obj 301 510 s_playtable;
#X obj 301 407 random 50;
#X obj 301 450 / 100;
#X obj 301 470 list append;
#X obj 436 543 / 100;
#X msg 383 478 0-alm;
#X obj 301 490 list prepend;
#X obj 301 429 + 40;
#X obj 436 523 random 20;
#X obj 436 564 + 0.4;
#X obj 378 389 / 130.8;
#X obj 378 368 mtof;
#X obj 378 326 random 24;
#X obj 424 245 bng 15 250 50 0 empty empty empty 17 7 0 10 -262144
-1 -1;
#X obj 378 409 * -1;
#X obj 378 449 list append 3000;
#X obj 476 347 / 1000;
#X obj 378 429 * 1;
#X obj 475 327 random 15;
#X obj 475 367 + 0.99;
#X obj 426 478 loadbang;
#X obj 378 347 m_minorscale 48;
#X obj 558 512 s_playtable;
#X obj 558 409 random 50;
#X obj 558 452 / 100;
#X obj 558 472 list append;
#X obj 693 545 / 100;
#X msg 640 480 0-alm;
#X obj 558 492 list prepend;
#X obj 558 431 + 40;
#X obj 693 525 random 20;
#X obj 693 566 + 0.4;
#X obj 635 391 / 130.8;
#X obj 635 370 mtof;
#X obj 635 327 random 24;
#X obj 681 247 bng 15 250 50 0 empty empty empty 17 7 0 10 -262144
-1 -1;
#X obj 635 411 * -1;
#X obj 635 451 list append 3000;
#X obj 733 349 / 1000;
#X obj 635 431 * 1;
#X obj 732 329 random 15;
#X obj 732 369 + 0.99;
#X obj 683 480 loadbang;
#X obj 409 175 random 3;
#X obj 407 199 sel 0 1 2;
#X obj 635 349 m_minorscale 24;
#X obj 110 594 e_pan;
#X obj 384 596 e_pan;
#X obj 558 583 e_pan;
#X msg 831 349 0;
#X obj 831 371 s noteRange;
#X obj 190 295 r noteRange;
#X obj 464 301 r noteRange;
#X obj 716 302 r noteRange;
#X floatatom 647 212 5 0 0 0 - - -;
#X obj 558 382 r ampOffset;
#X obj 296 379 r ampOffset;
#X obj 29 376 r ampOffset;
#X obj 657 297 t b b b;
#X obj 407 284 t b b b;
#X obj 92 282 t b b b;
#X obj 831 327 loadbang;
#X obj 831 233 soundfiler;
#X obj 831 180 loadbang;
#X msg 831 207 read -resize almglockenC.wav 0-alm;
#X obj 830 261 table 0-alm;
#X text 830 154 Load Bell Sound;
#X text 12 47 frequency of bell is 130.8;
#X text 13 3 Snow bell composition;
#X text 13 17 starts playing Cs \, spreads out to c minor scale \,
returns to Cs;
#N canvas 687 60 993 272 bellcomp 0;
#X obj 66 14 inlet;
#X obj 58 152 outlet;
#X obj 57 75 expr if($f1 < 25 \, $f1 * 2 \, if($f1 > 75 \, (100 - $f1)
* 2 \, 50));
#X obj 414 73 expr if($f1 < 25 \, ($f1 * 24)/25 \, if($f1 > 50 \, ((100
- $f1) / 50) * 24 \, 24));
#X obj 420 157 outlet;
#X connect 0 0 2 0;
#X connect 0 0 3 0;
#X connect 2 0 1 0;
#X connect 3 0 4 0;
#X restore 862 475 pd bellcomp;
#X obj 861 444 inlet;
#X obj 844 500 s ampOffset;
#X obj 921 500 s noteRange;
#X floatatom 942 476 5 0 0 0 - - -;
#X floatatom 821 475 5 0 0 0 - - -;
#X text 831 306 init vars;
#X text 836 414 composition;
#X text 943 535 gain;
#X obj 943 554 inlet;
#X obj 384 688 g_vol2;
#X obj 407 115 c_multipass;
#X obj 420 71 loadbang;
#X msg 420 93 90 7 4 15 97 10 2 3 95 4 6 6 95 2 4 9;
#X obj 586 619 e_reverb bellverb;
#X obj 698 596 loadbang;
#X msg 698 617 amp 95 \, hall 85 \, freq 6000 \, damp 60 \, dry 0;
#X obj 925 584 * 0.95;
#X connect 0 0 106 0;
#X connect 1 0 71 0;
#X connect 1 0 109 0;
#X connect 2 0 8 0;
#X connect 3 0 4 0;
#X connect 4 0 7 0;
#X connect 5 0 10 0;
#X connect 6 0 7 1;
#X connect 7 0 1 0;
#X connect 8 0 3 0;
#X connect 9 0 5 0;
#X connect 10 0 71 1;
#X connect 13 0 18 0;
#X connect 14 0 13 0;
#X connect 15 0 14 0;
#X connect 16 0 15 0;
#X connect 16 0 79 0;
#X connect 17 0 9 0;
#X connect 17 0 85 0;
#X connect 18 0 21 0;
#X connect 19 0 4 1;
#X connect 20 0 23 0;
#X connect 21 0 19 0;
#X connect 22 0 20 0;
#X connect 23 0 21 1;
#X connect 24 0 6 0;
#X connect 25 0 72 0;
#X connect 25 0 109 0;
#X connect 26 0 32 0;
#X connect 27 0 28 0;
#X connect 28 0 31 0;
#X connect 29 0 34 0;
#X connect 30 0 31 1;
#X connect 31 0 25 0;
#X connect 32 0 27 0;
#X connect 33 0 29 0;
#X connect 34 0 72 1;
#X connect 35 0 39 0;
#X connect 36 0 35 0;
#X connect 37 0 46 0;
#X connect 37 0 79 0;
#X connect 38 0 33 0;
#X connect 38 0 84 0;
#X connect 39 0 42 0;
#X connect 40 0 28 1;
#X connect 41 0 44 0;
#X connect 42 0 40 0;
#X connect 43 0 41 0;
#X connect 44 0 42 1;
#X connect 45 0 30 0;
#X connect 46 0 36 0;
#X connect 47 0 73 0;
#X connect 47 0 109 0;
#X connect 48 0 54 0;
#X connect 49 0 50 0;
#X connect 50 0 53 0;
#X connect 51 0 56 0;
#X connect 52 0 53 1;
#X connect 53 0 47 0;
#X connect 54 0 49 0;
#X connect 55 0 51 0;
#X connect 56 0 73 1;
#X connect 57 0 61 0;
#X connect 58 0 57 0;
#X connect 59 0 70 0;
#X connect 59 0 79 0;
#X connect 60 0 55 0;
#X connect 60 0 83 0;
#X connect 61 0 64 0;
#X connect 62 0 50 1;
#X connect 63 0 66 0;
#X connect 64 0 62 0;
#X connect 65 0 63 0;
#X connect 66 0 64 1;
#X connect 67 0 52 0;
#X connect 68 0 69 0;
#X connect 69 0 17 0;
#X connect 69 1 38 0;
#X connect 69 2 60 0;
#X connect 70 0 58 0;
#X connect 71 0 105 0;
#X connect 71 1 105 1;
#X connect 72 0 105 0;
#X connect 72 1 105 1;
#X connect 73 0 105 0;
#X connect 73 1 105 1;
#X connect 74 0 75 0;
#X connect 76 0 16 1;
#X connect 77 0 37 1;
#X connect 78 0 59 1;
#X connect 80 0 54 1;
#X connect 81 0 32 1;
#X connect 82 0 8 1;
#X connect 83 0 48 0;
#X connect 83 1 59 0;
#X connect 83 2 65 0;
#X connect 84 0 26 0;
#X connect 84 1 37 0;
#X connect 84 2 43 0;
#X connect 85 0 2 0;
#X connect 85 1 16 0;
#X connect 85 2 22 0;
#X connect 86 0 74 0;
#X connect 88 0 89 0;
#X connect 89 0 87 0;
#X connect 95 0 97 0;
#X connect 95 0 100 0;
#X connect 95 1 98 0;
#X connect 95 1 99 0;
#X connect 96 0 95 0;
#X connect 104 0 112 0;
#X connect 105 0 11 0;
#X connect 105 1 12 0;
#X connect 106 0 68 0;
#X connect 107 0 108 0;
#X connect 108 0 106 1;
#X connect 109 0 105 0;
#X connect 109 1 105 1;
#X connect 110 0 111 0;
#X connect 111 0 109 1;
#X connect 112 0 105 2;
#X restore 540 323 pd bellsong;
#X obj 724 174 loadbang;
#X text 600 -9 Ice Drum;
#X text 716 -9 Clusters;
#X text 827 -5 Snow Bells;
#X text 952 -4 fx;
#X obj 607 191 r but3;
#X obj 652 493 r but4;
#N canvas 326 601 450 300 sel01 0;
#X obj 122 3 inlet;
#X obj 247 31 sel 0;
#X msg 225 58 0;
#X msg 275 57 1;
#X obj 49 133 spigot;
#X obj 240 5 inlet;
#X obj 47 203 outlet;
#X obj 165 105 tgl 15 0 empty empty empty 17 7 0 10 -262144 -1 -1 0
1;
#X connect 0 0 4 0;
#X connect 1 0 2 0;
#X connect 1 1 3 0;
#X connect 2 0 7 0;
#X connect 3 0 7 0;
#X connect 4 0 6 0;
#X connect 5 0 1 0;
#X connect 7 0 4 1;
#X coords 0 -1 1 1 85 25 1 100 100;
#X restore 631 294 pd sel01;
#N canvas 326 601 450 300 sel01 0;
#X obj 122 3 inlet;
#X obj 247 31 sel 0;
#X msg 225 58 0;
#X msg 275 57 1;
#X obj 49 133 spigot;
#X obj 240 5 inlet;
#X obj 47 203 outlet;
#X obj 165 105 tgl 15 0 empty empty empty 17 7 0 10 -262144 -1 -1 0
1;
#X connect 0 0 4 0;
#X connect 1 0 2 0;
#X connect 1 1 3 0;
#X connect 2 0 7 0;
#X connect 3 0 7 0;
#X connect 4 0 6 0;
#X connect 5 0 1 0;
#X connect 7 0 4 1;
#X coords 0 -1 1 1 85 25 1 100 100;
#X restore 540 295 pd sel01;
#N canvas 151 210 775 555 snowfield 0;
#X obj 140 54 inlet;
#X obj 293 90 inlet;
#X obj 214 514 outlet~;
#X obj 369 515 outlet~;
#X obj 181 288 bng 15 250 50 0 empty empty empty 17 7 0 10 -262144
-1 -1;
#X obj 338 258 bng 15 250 50 0 empty empty empty 17 7 0 10 -262144
-1 -1;
#X obj 490 212 random 20;
#X obj 490 237 + 32;
#X msg 492 328 playdiv \$1 \$2 2;
#X obj 491 260 t f b;
#X floatatom 491 285 5 0 0 0 - - -;
#X obj 527 285 random;
#X obj 491 304 list append;
#X obj 338 277 random 600;
#X floatatom 292 118 5 0 0 0 - - -;
#X obj 338 302 list prepend;
#X obj 334 329 list prepend playdiv;
#X obj 407 224 * 20;
#X obj 408 249 + 200;
#X obj 44 304 list prepend;
#X obj 44 329 list prepend playdiv;
#X obj 43 258 bng 15 250 50 0 empty empty empty 17 7 0 10 -262144 -1
-1;
#X obj 44 279 random;
#X obj 95 251 + 100;
#X obj 95 226 * 21;
#X floatatom 94 280 5 0 0 0 - - -;
#X floatatom 408 277 5 0 0 0 - - -;
#X obj 181 306 random 40;
#X msg 181 329 playdiv 40 \$1 1;
#X obj 140 100 random 10;
#X obj 140 77 t b;
#X obj 140 123 sel 0 1 2 3 4 5;
#X obj 489 193 bng 15 250 50 0 empty empty empty 17 7 0 10 -262144
-1 -1;
#X obj 253 428 g_vol2;
#X msg 324 455 95;
#X obj 324 433 loadbang;
#N canvas 0 22 557 459 volumeRandomise 0;
#X obj 159 255 outlet;
#X obj 147 60 bng 15 250 50 0 empty empty empty 17 7 0 10 -262144 -1
-1;
#X obj 147 81 t b b;
#X obj 136 185 select;
#X obj 105 103 random 100;
#X obj 145 125 pack;
#X obj 145 152 line 50;
#X floatatom 108 152 5 0 0 0 - - -;
#X obj 185 184 / 100;
#X obj 185 205 * 40;
#X obj 186 226 + 60;
#X obj 173 103 random 10000;
#X obj 146 39 loadbang;
#X connect 1 0 2 0;
#X connect 2 0 4 0;
#X connect 2 1 11 0;
#X connect 3 0 1 0;
#X connect 4 0 3 1;
#X connect 4 0 5 0;
#X connect 5 0 6 0;
#X connect 6 0 3 0;
#X connect 6 0 7 0;
#X connect 6 0 8 0;
#X connect 8 0 9 0;
#X connect 9 0 10 0;
#X connect 10 0 0 0;
#X connect 11 0 5 1;
#X connect 12 0 1 0;
#X restore 602 342 pd volumeRandomise;
#X floatatom 602 364 5 0 0 0 - - -;
#X msg 341 89 0.5;
#X obj 341 67 loadbang;
#X text 131 35 notes;
#X text 277 52 note duration;
#X text 665 59 volume;
#X obj 665 91 inlet;
#X obj 649 460 *;
#X obj 645 411 / 100;
#X obj 673 434 * 0.85;
#X floatatom 618 160 5 0 0 0 - - -;
#X obj 265 393 s_looper \$0-snowk snowkicking20110214.wav;
#X connect 0 0 30 0;
#X connect 1 0 14 0;
#X connect 4 0 27 0;
#X connect 5 0 13 0;
#X connect 6 0 7 0;
#X connect 7 0 9 0;
#X connect 7 0 11 1;
#X connect 7 0 12 0;
#X connect 8 0 48 0;
#X connect 9 0 10 0;
#X connect 9 1 11 0;
#X connect 11 0 12 1;
#X connect 12 0 8 0;
#X connect 13 0 15 0;
#X connect 14 0 17 0;
#X connect 14 0 24 0;
#X connect 15 0 16 0;
#X connect 16 0 48 0;
#X connect 17 0 18 0;
#X connect 18 0 13 1;
#X connect 18 0 15 1;
#X connect 18 0 26 0;
#X connect 19 0 20 0;
#X connect 20 0 48 0;
#X connect 21 0 22 0;
#X connect 22 0 19 0;
#X connect 23 0 22 1;
#X connect 23 0 19 1;
#X connect 23 0 25 0;
#X connect 24 0 23 0;
#X connect 27 0 28 0;
#X connect 28 0 48 0;
#X connect 29 0 31 0;
#X connect 30 0 29 0;
#X connect 31 0 21 0;
#X connect 31 1 21 0;
#X connect 31 2 5 0;
#X connect 31 3 5 0;
#X connect 31 4 4 0;
#X connect 31 5 32 0;
#X connect 32 0 6 0;
#X connect 33 0 2 0;
#X connect 33 1 3 0;
#X connect 34 0 33 2;
#X connect 35 0 34 0;
#X connect 36 0 37 0;
#X connect 37 0 44 0;
#X connect 38 0 14 0;
#X connect 39 0 38 0;
#X connect 43 0 45 0;
#X connect 43 0 47 0;
#X connect 44 0 33 2;
#X connect 45 0 46 0;
#X connect 46 0 44 1;
#X connect 48 0 33 0;
#X connect 48 0 33 1;
#X restore 630 345 pd snowfield;
#N canvas 872 195 774 753 icefield 0;
#X obj 107 189 inlet;
#X obj 236 184 inlet;
#X obj 267 717 outlet~;
#X obj 316 717 outlet~;
#X obj 148 416 random 32;
#X obj 148 398 bng 15 250 50 0 empty empty empty 17 7 0 10 -262144
-1 -1;
#X obj 305 368 bng 15 250 50 0 empty empty empty 17 7 0 10 -262144
-1 -1;
#X obj 457 322 random 20;
#X obj 457 347 + 32;
#X msg 459 438 playdiv \$1 \$2 2;
#X obj 458 370 t f b;
#X floatatom 458 395 5 0 0 0 - - -;
#X obj 494 395 random;
#X obj 458 414 list append;
#X obj 305 387 random 600;
#X floatatom 235 206 5 0 0 0 - - -;
#X obj 305 412 list prepend;
#X obj 301 439 list prepend playdiv;
#X obj 374 334 * 20;
#X obj 375 359 + 200;
#X obj 11 414 list prepend;
#X obj 11 439 list prepend playdiv;
#X obj 10 368 bng 15 250 50 0 empty empty empty 17 7 0 10 -262144 -1
-1;
#X obj 11 389 random;
#X obj 62 361 + 100;
#X obj 62 336 * 21;
#X msg 148 439 playdiv 32 \$1 1;
#X floatatom 61 390 5 0 0 0 - - -;
#X floatatom 375 387 5 0 0 0 - - -;
#X obj 282 663 g_vol2;
#X obj 415 525 loadbang;
#X obj 108 228 random 10;
#X obj 108 249 sel 0 1 2 3 4 5;
#X obj 457 304 bng 15 250 50 0 empty empty empty 17 7 0 10 -262144
-1 -1;
#X obj 107 209 t b;
#X text 59 153 notes;
#X text 235 148 note length;
#X text 403 161 volume;
#X obj 398 192 inlet;
#X obj 373 522 *;
#X obj 72 465 s_looper \$0-ice1 ice1-short-mono.wav;
#X obj 459 462 s_looper \$0-ice2 ice2-short-mono.wav;
#X obj 299 208 loadbang;
#X msg 301 238 0;
#X obj 115 555 / 100;
#X obj 84 613 e_pan;
#X obj 115 515 t b;
#X obj 538 536 / 100;
#X obj 507 594 e_pan;
#X obj 538 496 t b;
#X obj 115 576 + 0;
#X obj 115 535 random 60;
#X obj 538 557 + 0.4;
#X obj 538 516 random 60;
#X msg 415 547 0.9;
#X connect 0 0 34 0;
#X connect 1 0 15 0;
#X connect 4 0 26 0;
#X connect 5 0 4 0;
#X connect 5 0 46 0;
#X connect 6 0 14 0;
#X connect 6 0 49 0;
#X connect 7 0 8 0;
#X connect 8 0 10 0;
#X connect 8 0 12 1;
#X connect 8 0 13 0;
#X connect 9 0 41 0;
#X connect 10 0 11 0;
#X connect 10 1 12 0;
#X connect 12 0 13 1;
#X connect 13 0 9 0;
#X connect 14 0 16 0;
#X connect 15 0 18 0;
#X connect 15 0 25 0;
#X connect 16 0 17 0;
#X connect 17 0 41 0;
#X connect 18 0 19 0;
#X connect 19 0 14 1;
#X connect 19 0 16 1;
#X connect 19 0 28 0;
#X connect 20 0 21 0;
#X connect 21 0 40 0;
#X connect 22 0 23 0;
#X connect 22 0 46 0;
#X connect 23 0 20 0;
#X connect 24 0 23 1;
#X connect 24 0 20 1;
#X connect 24 0 27 0;
#X connect 25 0 24 0;
#X connect 26 0 40 0;
#X connect 29 0 2 0;
#X connect 29 1 3 0;
#X connect 30 0 54 0;
#X connect 31 0 32 0;
#X connect 32 0 22 0;
#X connect 32 1 22 0;
#X connect 32 2 5 0;
#X connect 32 3 5 0;
#X connect 32 4 6 0;
#X connect 32 5 33 0;
#X connect 33 0 7 0;
#X connect 33 0 49 0;
#X connect 34 0 31 0;
#X connect 38 0 39 0;
#X connect 39 0 29 2;
#X connect 40 0 45 0;
#X connect 41 0 48 0;
#X connect 42 0 43 0;
#X connect 43 0 15 0;
#X connect 44 0 50 0;
#X connect 45 0 29 0;
#X connect 45 1 29 1;
#X connect 46 0 51 0;
#X connect 47 0 52 0;
#X connect 48 0 29 0;
#X connect 48 1 29 1;
#X connect 49 0 53 0;
#X connect 50 0 45 1;
#X connect 51 0 44 0;
#X connect 52 0 48 1;
#X connect 53 0 47 0;
#X connect 54 0 39 1;
#X restore 89 233 pd icefield;
#N canvas 326 601 450 300 sel01 0;
#X obj 122 3 inlet;
#X obj 247 31 sel 0;
#X msg 225 58 0;
#X msg 275 57 1;
#X obj 49 133 spigot;
#X obj 240 5 inlet;
#X obj 47 203 outlet;
#X obj 165 105 tgl 15 0 empty empty empty 17 7 0 10 -262144 -1 -1 1
1;
#X connect 0 0 4 0;
#X connect 1 0 2 0;
#X connect 1 1 3 0;
#X connect 2 0 7 0;
#X connect 3 0 7 0;
#X connect 4 0 6 0;
#X connect 5 0 1 0;
#X connect 7 0 4 1;
#X coords 0 -1 1 1 85 25 1 100 100;
#X restore -8 203 pd sel01;
#N canvas 496 327 846 648 cym 0;
#X obj 214 26 inlet;
#X obj 225 126 bng 15 250 50 0 empty empty empty 17 7 0 10 -262144
-1 -1;
#X obj 182 373 s_playtable;
#X obj 103 258 random 50;
#X obj 103 301 / 100;
#X obj 103 233 bng 15 250 50 0 empty empty empty 17 7 0 10 -262144
-1 -1;
#X obj 103 327 list append;
#X obj 261 382 / 100;
#X obj 240 443 + -1;
#X obj 180 442 *~;
#X obj 211 441 *~;
#X obj 166 278 / 1000;
#X obj 103 347 list prepend;
#X obj 103 280 + 40;
#X obj 261 360 random 20;
#X obj 361 471 + 0.4;
#X obj 178 561 outlet~;
#X obj 311 561 outlet~;
#X msg 210 203 1-cym;
#X msg 255 202 2-cym;
#X text 573 20 hihat kind of bit;
#X obj 224 171 sel 0 1;
#X obj 226 147 random 2;
#X obj 379 301 random 2;
#X obj 364 331 spigot;
#X obj 415 325 * -1;
#X obj 419 352 + 1;
#X obj 401 379 spigot;
#X obj 236 417 t f;
#X obj 332 292 t b;
#X floatatom 318 431 5 0 0 0 - - -;
#X obj 415 405 * -1;
#X obj 389 405 + 1;
#X obj 165 258 random 1000;
#X obj 165 298 + 0.5;
#X obj 224 95 c_multipass;
#X obj 237 51 loadbang;
#X msg 237 73 52 41 54 65 72 64 69 67 65 70 78 67 80 75 78;
#X obj 179 478 g_vol2;
#X obj 254 478 loadbang;
#X msg 254 499 95;
#X obj 485 35 inlet;
#X obj 437 102 * 0.9;
#X obj 130 407 e_reverb cymverb;
#X obj 560 370 loadbang;
#X text 108 215 gain;
#X text 176 235 pitch;
#X obj 203 326 * 0.7;
#X msg 547 396 amp 100 \, hall 85 \, freq 6000 \, damp 60 \, dry 0.7
;
#X connect 0 0 35 0;
#X connect 1 0 5 0;
#X connect 1 0 22 0;
#X connect 2 0 43 0;
#X connect 3 0 13 0;
#X connect 4 0 6 0;
#X connect 5 0 3 0;
#X connect 5 0 14 0;
#X connect 5 0 33 0;
#X connect 6 0 12 0;
#X connect 7 0 24 0;
#X connect 7 0 27 0;
#X connect 7 0 29 0;
#X connect 8 0 10 1;
#X connect 9 0 38 0;
#X connect 10 0 38 1;
#X connect 11 0 34 0;
#X connect 12 0 2 0;
#X connect 13 0 4 0;
#X connect 14 0 7 0;
#X connect 15 0 9 1;
#X connect 15 0 8 0;
#X connect 18 0 12 1;
#X connect 19 0 12 1;
#X connect 21 0 18 0;
#X connect 21 1 19 0;
#X connect 22 0 21 0;
#X connect 23 0 24 1;
#X connect 23 0 25 0;
#X connect 24 0 28 0;
#X connect 24 0 30 0;
#X connect 25 0 26 0;
#X connect 26 0 27 1;
#X connect 27 0 31 0;
#X connect 28 0 8 0;
#X connect 28 0 9 1;
#X connect 29 0 23 0;
#X connect 31 0 32 0;
#X connect 32 0 30 0;
#X connect 32 0 28 0;
#X connect 33 0 11 0;
#X connect 34 0 47 0;
#X connect 35 0 1 0;
#X connect 36 0 37 0;
#X connect 37 0 35 1;
#X connect 38 0 16 0;
#X connect 38 1 17 0;
#X connect 39 0 40 0;
#X connect 40 0 38 2;
#X connect 41 0 42 0;
#X connect 42 0 38 2;
#X connect 43 0 9 0;
#X connect 43 1 10 0;
#X connect 44 0 48 0;
#X connect 47 0 6 1;
#X connect 48 0 43 1;
#X restore 43 233 pd cym;
#N canvas 1011 69 484 607 drum 0;
#X obj 141 24 inlet;
#X obj 152 124 bng 15 250 50 0 empty empty empty 17 7 0 10 -262144
-1 -1;
#X obj 30 372 s_playtable;
#X obj 30 299 / 100;
#X obj 30 231 bng 15 250 50 0 empty empty empty 17 7 0 10 -262144 -1
-1;
#X obj 30 325 list append;
#X obj 143 397 / 100;
#X obj 185 422 + -1;
#X obj 44 444 *~;
#X obj 75 443 *~;
#X obj 93 276 / 1000;
#X obj 110 318 / 3;
#X obj 30 345 list prepend;
#X msg 129 199 3-drum;
#X msg 182 200 4-drum;
#X obj 143 375 random 20;
#X obj 185 398 + 0.4;
#X obj 43 554 outlet~;
#X obj 100 554 outlet~;
#X obj 151 148 random 2;
#X obj 151 169 sel 0 1;
#X obj 185 85 c_multipass;
#X obj 198 41 loadbang;
#X obj 60 482 g_vol2;
#X obj 3 482 loadbang;
#X msg 3 505 100;
#X obj 314 25 inlet;
#X text 327 6 volume;
#X obj 30 256 random 30;
#X obj 92 296 + 0.9;
#X obj 92 256 random 50;
#X text 30 197 gain;
#X text 97 237 pitch;
#X obj 30 278 + 70;
#X msg 198 63 99 5 5 5 85 5 5 85 5 5 40 40 95 5 5 5;
#X connect 0 0 21 0;
#X connect 1 0 4 0;
#X connect 1 0 14 0;
#X connect 2 0 9 0;
#X connect 2 0 8 0;
#X connect 3 0 5 0;
#X connect 4 0 15 0;
#X connect 4 0 28 0;
#X connect 4 0 30 0;
#X connect 5 0 12 0;
#X connect 6 0 16 0;
#X connect 7 0 9 1;
#X connect 8 0 23 0;
#X connect 9 0 23 1;
#X connect 10 0 29 0;
#X connect 11 0 5 1;
#X connect 12 0 2 0;
#X connect 13 0 12 1;
#X connect 14 0 12 1;
#X connect 15 0 6 0;
#X connect 16 0 8 1;
#X connect 16 0 7 0;
#X connect 19 0 20 0;
#X connect 20 0 13 0;
#X connect 20 1 14 0;
#X connect 21 0 1 0;
#X connect 22 0 34 0;
#X connect 23 0 17 0;
#X connect 23 1 18 0;
#X connect 24 0 25 0;
#X connect 25 0 23 2;
#X connect 26 0 23 2;
#X connect 28 0 33 0;
#X connect 29 0 11 0;
#X connect 30 0 10 0;
#X connect 33 0 3 0;
#X connect 34 0 21 1;
#X restore -8 233 pd drum;
#X obj 90 91 loadbang;
#X obj 9 110 r but1;
#X obj 44 261 g_vol2;
#X msg 115 294 100;
#X obj 115 274 loadbang;
#N canvas 727 49 477 425 clustermetro 0;
#X obj 303 241 bng 15 250 50 0 empty empty empty 17 7 0 10 -262144
-1 -1;
#X obj 247 264 + 1;
#X obj 211 109 t b b b b;
#X obj 201 15 bng 15 250 50 0 empty empty empty 17 7 0 10 -262144 -1
-1;
#X floatatom 256 287 5 0 0 0 - - -;
#X obj 247 244 random 6;
#X obj 67 123 delay 1000;
#X obj 66 97 random 8000;
#X obj 192 324 c_multimetro 16 200;
#X obj 192 298 tgl 15 0 empty empty empty 17 7 0 10 -262144 -1 -1 1
1;
#X obj 91 319 delay 10;
#X msg 149 325 stop;
#X floatatom 89 252 5 0 0 0 - - -;
#X obj 89 276 sel 15;
#X obj 83 299 bng 15 250 50 0 empty empty empty 17 7 0 10 -262144 -1
-1;
#X obj 102 297 t b;
#X msg 192 277 1;
#X obj 223 13 loadbang;
#X obj 192 346 outlet;
#X obj 157 14 inlet;
#N canvas 1012 38 445 814 createclusterrhythm 0;
#X obj 78 50 inlet;
#X obj 52 778 outlet;
#X obj 167 167 random 1000;
#X obj 167 187 + 50;
#X obj 68 140 t b b b b b b b b;
#X obj 148 211 random 1000;
#X obj 148 231 + 50;
#X obj 143 257 random 1000;
#X obj 143 277 + 50;
#X obj 122 296 random 1000;
#X obj 122 316 + 50;
#X obj 113 338 random 1000;
#X obj 113 358 + 50;
#X obj 104 382 random 1000;
#X obj 104 402 + 50;
#X obj 94 424 random 1000;
#X obj 94 444 + 50;
#X obj 93 478 list append;
#X obj 92 500 list append;
#X obj 95 522 list append;
#X obj 96 544 list append;
#X obj 94 567 list append;
#X obj 95 592 list append;
#X connect 0 0 4 0;
#X connect 2 0 3 0;
#X connect 3 0 22 1;
#X connect 4 1 15 0;
#X connect 4 2 13 0;
#X connect 4 3 11 0;
#X connect 4 4 9 0;
#X connect 4 5 7 0;
#X connect 4 6 5 0;
#X connect 4 7 2 0;
#X connect 5 0 6 0;
#X connect 6 0 21 1;
#X connect 7 0 8 0;
#X connect 8 0 20 1;
#X connect 9 0 10 0;
#X connect 10 0 19 1;
#X connect 11 0 12 0;
#X connect 12 0 18 1;
#X connect 13 0 14 0;
#X connect 14 0 17 1;
#X connect 15 0 16 0;
#X connect 16 0 17 0;
#X connect 17 0 18 0;
#X connect 18 0 19 0;
#X connect 19 0 20 0;
#X connect 20 0 21 0;
#X connect 21 0 22 0;
#X connect 22 0 1 0;
#X restore 303 262 pd createclusterrhythm;
#X obj 348 352 print rhythm:;
#X obj 46 124 bng 15 250 50 0 empty empty empty 17 7 0 10 -262144 -1
-1;
#X obj 345 321 spigot;
#X obj 374 293 tgl 15 0 empty empty empty 17 7 0 10 -262144 -1 -1 0
1;
#X connect 0 0 20 0;
#X connect 1 0 8 1;
#X connect 1 0 4 0;
#X connect 2 0 7 0;
#X connect 2 1 16 0;
#X connect 2 2 5 0;
#X connect 2 3 0 0;
#X connect 3 0 2 0;
#X connect 5 0 1 0;
#X connect 5 0 13 1;
#X connect 6 0 2 0;
#X connect 6 0 22 0;
#X connect 7 0 6 1;
#X connect 8 0 12 0;
#X connect 8 0 18 0;
#X connect 9 0 8 0;
#X connect 10 0 11 0;
#X connect 10 0 6 0;
#X connect 11 0 8 0;
#X connect 12 0 13 0;
#X connect 13 0 14 0;
#X connect 13 0 15 0;
#X connect 15 0 10 0;
#X connect 16 0 9 0;
#X connect 17 0 2 0;
#X connect 19 0 2 0;
#X connect 20 0 8 2;
#X connect 20 0 23 0;
#X connect 23 0 21 0;
#X connect 24 0 23 1;
#X restore 286 204 pd clustermetro;
#X obj 266 205 bng 15 250 50 0 empty empty empty 17 7 0 10 -262144
-1 -1;
#N canvas 326 601 450 300 sel01 0;
#X obj 122 3 inlet;
#X obj 247 31 sel 0;
#X msg 225 58 0;
#X msg 275 57 1;
#X obj 49 133 spigot;
#X obj 240 5 inlet;
#X obj 47 203 outlet;
#X obj 165 105 tgl 15 0 empty empty empty 17 7 0 10 -262144 -1 -1 1
1;
#X connect 0 0 4 0;
#X connect 1 0 2 0;
#X connect 1 1 3 0;
#X connect 2 0 7 0;
#X connect 3 0 7 0;
#X connect 4 0 6 0;
#X connect 5 0 1 0;
#X connect 7 0 4 1;
#X coords 0 -1 1 1 85 25 1 100 100;
#X restore 309 228 pd sel01;
#X obj 373 101 loadbang;
#X obj 292 120 r but2;
#N canvas 85 173 671 572 cymbals 0;
#X obj 88 87 inlet;
#X obj 234 99 inlet;
#X obj 154 552 outlet~;
#X obj 204 551 outlet~;
#X obj 137 271 bng 15 250 50 0 empty empty empty 17 7 0 10 -262144
-1 -1;
#X obj 294 241 bng 15 250 50 0 empty empty empty 17 7 0 10 -262144
-1 -1;
#X obj 446 195 random 20;
#X obj 446 220 + 32;
#X obj 447 243 t f b;
#X floatatom 447 268 5 0 0 0 - - -;
#X obj 483 268 random;
#X obj 447 287 list append;
#X obj 294 260 random 600;
#X floatatom 233 121 5 0 0 0 - - -;
#X obj 294 285 list prepend;
#X obj 290 312 list prepend playdiv;
#X obj 363 207 * 20;
#X obj 364 232 + 200;
#X obj 0 287 list prepend;
#X obj 0 312 list prepend playdiv;
#X obj 0 244 bng 15 250 50 0 empty empty empty 17 7 0 10 -262144 -1
-1;
#X obj 0 262 random;
#X obj 51 234 + 100;
#X obj 51 209 * 21;
#X floatatom 50 263 5 0 0 0 - - -;
#X floatatom 364 260 5 0 0 0 - - -;
#X obj 137 289 random 40;
#X obj 137 380 s_looper \$0-cymballong cymballong.wav;
#X obj 88 128 random 10;
#X obj 88 107 t b;
#X obj 88 149 sel 0 1 2 3 4 5;
#X obj 446 175 bng 15 250 50 0 empty empty empty 17 7 0 10 -262144
-1 -1;
#X text 72 52 note;
#X text 224 68 note length;
#X text 527 16 volume;
#X obj 530 33 inlet;
#X obj 168 497 g_vol2;
#X obj 296 83 loadbang;
#X msg 296 103 0;
#X obj 364 458 / 100;
#X obj 170 468 e_pan;
#X obj 364 418 t b;
#X obj 364 438 random 50;
#X obj 364 479 + 0.25;
#X obj 166 430 *~;
#X obj 181 403 c_adsr 1 20 0 100 500;
#X msg 448 311 playdiv \$1 \$2 5;
#X msg 137 312 playdiv 40 \$1 4;
#X obj 18 335 list append 4;
#X obj 290 333 list append 4;
#N canvas 793 64 557 459 volumeRandomise 0;
#X obj 159 255 outlet;
#X obj 147 60 bng 15 250 50 0 empty empty empty 17 7 0 10 -262144 -1
-1;
#X obj 147 81 t b b;
#X obj 136 185 select;
#X obj 105 103 random 100;
#X obj 145 125 pack;
#X obj 145 152 line 50;
#X floatatom 108 152 5 0 0 0 - - -;
#X obj 185 184 / 100;
#X obj 173 103 random 10000;
#X obj 146 39 loadbang;
#X obj 185 205 * 15;
#X obj 186 226 + 85;
#X connect 1 0 2 0;
#X connect 2 0 4 0;
#X connect 2 1 9 0;
#X connect 3 0 1 0;
#X connect 4 0 3 1;
#X connect 4 0 5 0;
#X connect 5 0 6 0;
#X connect 6 0 3 0;
#X connect 6 0 7 0;
#X connect 6 0 8 0;
#X connect 8 0 11 0;
#X connect 9 0 5 1;
#X connect 10 0 1 0;
#X connect 11 0 12 0;
#X connect 12 0 0 0;
#X restore 399 40 pd volumeRandomise;
#X floatatom 399 62 5 0 0 0 - - -;
#X obj 458 99 *;
#X obj 531 62 / 100;
#X obj 501 87 * 0.9;
#X connect 0 0 29 0;
#X connect 0 0 41 0;
#X connect 0 0 45 0;
#X connect 1 0 13 0;
#X connect 4 0 26 0;
#X connect 5 0 12 0;
#X connect 6 0 7 0;
#X connect 7 0 8 0;
#X connect 7 0 10 1;
#X connect 7 0 11 0;
#X connect 8 0 9 0;
#X connect 8 1 10 0;
#X connect 10 0 11 1;
#X connect 11 0 46 0;
#X connect 12 0 14 0;
#X connect 13 0 16 0;
#X connect 13 0 23 0;
#X connect 14 0 15 0;
#X connect 15 0 49 0;
#X connect 16 0 17 0;
#X connect 17 0 12 1;
#X connect 17 0 14 1;
#X connect 17 0 25 0;
#X connect 18 0 19 0;
#X connect 19 0 48 0;
#X connect 20 0 21 0;
#X connect 21 0 18 0;
#X connect 22 0 21 1;
#X connect 22 0 18 1;
#X connect 22 0 24 0;
#X connect 23 0 22 0;
#X connect 26 0 47 0;
#X connect 27 0 44 0;
#X connect 28 0 30 0;
#X connect 29 0 28 0;
#X connect 30 0 20 0;
#X connect 30 1 20 0;
#X connect 30 2 4 0;
#X connect 30 3 4 0;
#X connect 30 4 5 0;
#X connect 30 5 31 0;
#X connect 31 0 6 0;
#X connect 35 0 53 0;
#X connect 36 0 2 0;
#X connect 36 1 3 0;
#X connect 37 0 38 0;
#X connect 38 0 13 0;
#X connect 39 0 43 0;
#X connect 40 0 36 0;
#X connect 40 1 36 1;
#X connect 41 0 42 0;
#X connect 42 0 39 0;
#X connect 43 0 40 1;
#X connect 44 0 40 0;
#X connect 45 0 44 1;
#X connect 46 0 27 0;
#X connect 47 0 27 0;
#X connect 48 0 27 0;
#X connect 49 0 27 0;
#X connect 50 0 51 0;
#X connect 51 0 52 0;
#X connect 52 0 36 2;
#X connect 53 0 54 0;
#X connect 54 0 52 1;
#X restore 386 258 pd cymbals;
#N canvas 84 278 1102 690 clusters 0;
#X obj 47 387 s_playtable;
#X obj 47 327 / 100;
#X obj 47 347 list append;
#X obj 127 412 / 100;
#X msg 137 351 0-alm;
#X obj 47 367 list prepend;
#X obj 127 392 random 20;
#X obj 127 433 + 0.4;
#X obj 124 266 / 130.8;
#X obj 124 245 mtof;
#X obj 57 80 bng 15 250 50 0 empty empty empty 17 7 0 10 -262144 -1
-1;
#X obj 124 326 list append 3000;
#X obj 229 245 / 1000;
#X obj 124 306 * 1;
#X obj 228 225 random 15;
#X obj 228 265 + 0.99;
#X obj 180 351 loadbang;
#X obj 96 470 e_pan;
#X obj 57 101 t b b b;
#X obj 434 655 outlet~;
#X obj 486 654 outlet~;
#X obj 124 286 * 1;
#X floatatom 74 197 5 0 0 0 - - -;
#X obj 678 38 s \$0-cluster;
#X obj 678 -1 loadbang;
#X obj 823 18 table \$0-cluster 7;
#X obj 73 130 bng 15 250 50 0 empty empty empty 17 7 0 10 -262144 -1
-1;
#X obj 73 152 random 7;
#X obj 74 176 tabread \$0-cluster;
#X msg 678 19 0 -7 -6 -2 -1 3 -9;
#X obj 127 372 t b;
#X obj 300 391 s_playtable;
#X obj 300 331 / 100;
#X obj 300 351 list append;
#X obj 380 416 / 100;
#X msg 390 355 0-alm;
#X obj 300 371 list prepend;
#X obj 380 396 random 20;
#X obj 380 437 + 0.4;
#X obj 377 270 / 130.8;
#X obj 377 249 mtof;
#X obj 310 84 bng 15 250 50 0 empty empty empty 17 7 0 10 -262144 -1
-1;
#X obj 377 330 list append 3000;
#X obj 482 249 / 1000;
#X obj 377 310 * 1;
#X obj 481 229 random 15;
#X obj 481 269 + 0.99;
#X obj 433 355 loadbang;
#X obj 350 465 e_pan;
#X obj 310 105 t b b b;
#X obj 377 290 * 1;
#X floatatom 326 196 5 0 0 0 - - -;
#X obj 326 134 bng 15 250 50 0 empty empty empty 17 7 0 10 -262144
-1 -1;
#X obj 326 156 random 7;
#X obj 326 176 tabread \$0-cluster;
#X obj 380 376 t b;
#X obj 551 400 s_playtable;
#X obj 551 340 / 100;
#X obj 551 360 list append;
#X obj 631 425 / 100;
#X msg 641 364 0-alm;
#X obj 551 380 list prepend;
#X obj 631 405 random 20;
#X obj 631 446 + 0.4;
#X obj 628 279 / 130.8;
#X obj 628 258 mtof;
#X obj 561 93 bng 15 250 50 0 empty empty empty 17 7 0 10 -262144 -1
-1;
#X obj 628 339 list append 3000;
#X obj 733 258 / 1000;
#X obj 628 319 * 1;
#X obj 732 238 random 15;
#X obj 732 278 + 0.99;
#X obj 684 364 loadbang;
#X obj 601 474 e_pan;
#X obj 561 114 t b b b;
#X obj 628 299 * 1;
#X floatatom 578 210 5 0 0 0 - - -;
#X obj 577 143 bng 15 250 50 0 empty empty empty 17 7 0 10 -262144
-1 -1;
#X obj 577 165 random 7;
#X obj 578 189 tabread \$0-cluster;
#X obj 631 385 t b;
#X obj 796 406 s_playtable;
#X obj 796 346 / 100;
#X obj 796 366 list append;
#X obj 876 431 / 100;
#X msg 886 370 0-alm;
#X obj 796 386 list prepend;
#X obj 876 411 random 20;
#X obj 876 452 + 0.4;
#X obj 873 285 / 130.8;
#X obj 873 264 mtof;
#X obj 806 99 bng 15 250 50 0 empty empty empty 17 7 0 10 -262144 -1
-1;
#X obj 873 345 list append 3000;
#X obj 978 264 / 1000;
#X obj 873 325 * 1;
#X obj 977 244 random 15;
#X obj 977 284 + 0.99;
#X obj 929 370 loadbang;
#X obj 846 480 e_pan;
#X obj 806 120 t b b b;
#X obj 873 305 * 1;
#X floatatom 823 216 5 0 0 0 - - -;
#X obj 822 149 bng 15 250 50 0 empty empty empty 17 7 0 10 -262144
-1 -1;
#X obj 822 171 random 7;
#X obj 823 195 tabread \$0-cluster;
#X obj 876 391 t b;
#X obj 403 48 sel 0 1 2 3;
#X obj 401 26 random 4;
#X floatatom 459 26 5 0 0 0 - - -;
#X obj 491 0 t b f;
#X floatatom 524 24 5 0 0 0 - - -;
#X obj 274 20 inlet;
#X obj 434 598 g_vol2;
#X obj 702 598 inlet;
#X text 700 580 volume;
#X text 252 1 note input;
#X obj 476 498 loadbang;
#X msg 476 518 100;
#X floatatom 477 451 5 0 0 0 - - -;
#X text 62 262 amp;
#X text 144 204 note;
#X obj 300 288 random 15;
#X obj 300 310 + 85;
#X obj 47 284 random 15;
#X obj 47 306 + 85;
#X obj 551 297 random 15;
#X obj 551 319 + 85;
#X obj 796 303 random 15;
#X obj 796 325 + 85;
#X obj 125 225 m_mixolydian 48;
#X obj 378 229 m_mixolydian 48;
#X obj 629 238 m_mixolydian 48;
#X obj 874 244 m_mixolydian 48;
#X connect 0 0 17 0;
#X connect 1 0 2 0;
#X connect 1 0 118 0;
#X connect 2 0 5 0;
#X connect 3 0 7 0;
#X connect 4 0 5 1;
#X connect 5 0 0 0;
#X connect 5 0 30 0;
#X connect 6 0 3 0;
#X connect 7 0 17 1;
#X connect 8 0 21 0;
#X connect 9 0 8 0;
#X connect 10 0 18 0;
#X connect 11 0 2 1;
#X connect 12 0 15 0;
#X connect 13 0 11 0;
#X connect 14 0 12 0;
#X connect 15 0 13 1;
#X connect 16 0 4 0;
#X connect 17 0 112 0;
#X connect 17 1 112 1;
#X connect 18 0 123 0;
#X connect 18 1 26 0;
#X connect 18 2 14 0;
#X connect 21 0 13 0;
#X connect 22 0 129 0;
#X connect 24 0 29 0;
#X connect 26 0 27 0;
#X connect 27 0 28 0;
#X connect 28 0 22 0;
#X connect 29 0 23 0;
#X connect 30 0 6 0;
#X connect 31 0 48 0;
#X connect 32 0 33 0;
#X connect 32 0 118 0;
#X connect 33 0 36 0;
#X connect 34 0 38 0;
#X connect 35 0 36 1;
#X connect 36 0 31 0;
#X connect 36 0 55 0;
#X connect 37 0 34 0;
#X connect 38 0 48 1;
#X connect 39 0 50 0;
#X connect 40 0 39 0;
#X connect 41 0 49 0;
#X connect 42 0 33 1;
#X connect 43 0 46 0;
#X connect 44 0 42 0;
#X connect 45 0 43 0;
#X connect 46 0 44 1;
#X connect 47 0 35 0;
#X connect 48 0 112 0;
#X connect 48 1 112 1;
#X connect 49 0 121 0;
#X connect 49 1 52 0;
#X connect 49 2 45 0;
#X connect 50 0 44 0;
#X connect 51 0 130 0;
#X connect 52 0 53 0;
#X connect 53 0 54 0;
#X connect 54 0 51 0;
#X connect 55 0 37 0;
#X connect 56 0 73 0;
#X connect 57 0 58 0;
#X connect 57 0 118 0;
#X connect 58 0 61 0;
#X connect 59 0 63 0;
#X connect 60 0 61 1;
#X connect 61 0 56 0;
#X connect 61 0 80 0;
#X connect 62 0 59 0;
#X connect 63 0 73 1;
#X connect 64 0 75 0;
#X connect 65 0 64 0;
#X connect 66 0 74 0;
#X connect 67 0 58 1;
#X connect 68 0 71 0;
#X connect 69 0 67 0;
#X connect 70 0 68 0;
#X connect 71 0 69 1;
#X connect 72 0 60 0;
#X connect 73 0 112 0;
#X connect 73 1 112 1;
#X connect 74 0 125 0;
#X connect 74 1 77 0;
#X connect 74 2 70 0;
#X connect 75 0 69 0;
#X connect 76 0 131 0;
#X connect 77 0 78 0;
#X connect 78 0 79 0;
#X connect 79 0 76 0;
#X connect 80 0 62 0;
#X connect 81 0 98 0;
#X connect 82 0 83 0;
#X connect 82 0 118 0;
#X connect 83 0 86 0;
#X connect 84 0 88 0;
#X connect 85 0 86 1;
#X connect 86 0 81 0;
#X connect 86 0 105 0;
#X connect 87 0 84 0;
#X connect 88 0 98 1;
#X connect 89 0 100 0;
#X connect 90 0 89 0;
#X connect 91 0 99 0;
#X connect 92 0 83 1;
#X connect 93 0 96 0;
#X connect 94 0 92 0;
#X connect 95 0 93 0;
#X connect 96 0 94 1;
#X connect 97 0 85 0;
#X connect 98 0 112 0;
#X connect 98 1 112 1;
#X connect 99 0 127 0;
#X connect 99 1 102 0;
#X connect 99 2 95 0;
#X connect 100 0 94 0;
#X connect 101 0 132 0;
#X connect 102 0 103 0;
#X connect 103 0 104 0;
#X connect 104 0 101 0;
#X connect 105 0 87 0;
#X connect 106 0 10 0;
#X connect 106 1 41 0;
#X connect 106 2 66 0;
#X connect 106 3 91 0;
#X connect 107 0 106 0;
#X connect 107 0 108 0;
#X connect 109 0 107 0;
#X connect 109 1 110 0;
#X connect 111 0 109 0;
#X connect 112 0 19 0;
#X connect 112 1 20 0;
#X connect 113 0 112 2;
#X connect 116 0 117 0;
#X connect 117 0 112 2;
#X connect 121 0 122 0;
#X connect 122 0 32 0;
#X connect 123 0 124 0;
#X connect 124 0 1 0;
#X connect 125 0 126 0;
#X connect 126 0 57 0;
#X connect 127 0 128 0;
#X connect 128 0 82 0;
#X connect 129 0 9 0;
#X connect 130 0 40 0;
#X connect 131 0 65 0;
#X connect 132 0 90 0;
#X restore 309 257 pd clusters;
#N canvas 0 22 462 533 soundfiles 0;
#X obj 240 99 soundfiler;
#X obj 240 46 loadbang;
#X msg 240 73 read -resize cymTic.wav 1-cym;
#X obj 239 127 table 1-cym;
#X obj 245 215 soundfiler;
#X obj 245 162 loadbang;
#X msg 245 189 read -resize cymTuk.wav 2-cym;
#X obj 244 244 table 2-cym;
#X obj 11 101 soundfiler;
#X obj 11 48 loadbang;
#X msg 11 75 read -resize drumTonk.wav 3-drum;
#X obj 10 128 table 3-drum;
#X obj 14 212 soundfiler;
#X obj 14 159 loadbang;
#X msg 14 186 read -resize drumTung.wav 4-drum;
#X obj 13 239 table 4-drum;
#X obj 23 286 loadbang;
#X obj 23 328 soundfiler;
#X obj 24 366 table 0-cymbalNote;
#X msg 23 307 read -resize cymbalNote.wav 0-cymbalNote;
#X connect 1 0 2 0;
#X connect 2 0 0 0;
#X connect 5 0 6 0;
#X connect 6 0 4 0;
#X connect 9 0 10 0;
#X connect 10 0 8 0;
#X connect 13 0 14 0;
#X connect 14 0 12 0;
#X connect 16 0 19 0;
#X connect 19 0 17 0;
#X restore 951 493 pd soundfiles;
#N canvas 727 49 477 425 clustermetro 0;
#X obj 303 241 bng 15 250 50 0 empty empty empty 17 7 0 10 -262144
-1 -1;
#X obj 247 264 + 1;
#X obj 211 109 t b b b b;
#X obj 201 15 bng 15 250 50 0 empty empty empty 17 7 0 10 -262144 -1
-1;
#X floatatom 256 287 5 0 0 0 - - -;
#X obj 247 244 random 6;
#X obj 67 123 delay 1000;
#X obj 192 324 c_multimetro 16 200;
#X obj 192 298 tgl 15 0 empty empty empty 17 7 0 10 -262144 -1 -1 1
1;
#X obj 91 319 delay 10;
#X msg 149 325 stop;
#X floatatom 89 252 5 0 0 0 - - -;
#X obj 89 276 sel 15;
#X obj 83 299 bng 15 250 50 0 empty empty empty 17 7 0 10 -262144 -1
-1;
#X obj 102 297 t b;
#X msg 192 277 1;
#X obj 223 13 loadbang;
#X obj 192 346 outlet;
#X obj 157 14 inlet;
#N canvas 1012 38 445 814 createclusterrhythm 0;
#X obj 78 50 inlet;
#X obj 52 778 outlet;
#X obj 167 167 random 1000;
#X obj 167 187 + 50;
#X obj 68 140 t b b b b b b b b;
#X obj 148 211 random 1000;
#X obj 148 231 + 50;
#X obj 143 257 random 1000;
#X obj 143 277 + 50;
#X obj 122 296 random 1000;
#X obj 122 316 + 50;
#X obj 113 338 random 1000;
#X obj 113 358 + 50;
#X obj 104 382 random 1000;
#X obj 104 402 + 50;
#X obj 94 424 random 1000;
#X obj 94 444 + 50;
#X obj 93 478 list append;
#X obj 92 500 list append;
#X obj 95 522 list append;
#X obj 96 544 list append;
#X obj 94 567 list append;
#X obj 95 592 list append;
#X connect 0 0 4 0;
#X connect 2 0 3 0;
#X connect 3 0 22 1;
#X connect 4 1 15 0;
#X connect 4 2 13 0;
#X connect 4 3 11 0;
#X connect 4 4 9 0;
#X connect 4 5 7 0;
#X connect 4 6 5 0;
#X connect 4 7 2 0;
#X connect 5 0 6 0;
#X connect 6 0 21 1;
#X connect 7 0 8 0;
#X connect 8 0 20 1;
#X connect 9 0 10 0;
#X connect 10 0 19 1;
#X connect 11 0 12 0;
#X connect 12 0 18 1;
#X connect 13 0 14 0;
#X connect 14 0 17 1;
#X connect 15 0 16 0;
#X connect 16 0 17 0;
#X connect 17 0 18 0;
#X connect 18 0 19 0;
#X connect 19 0 20 0;
#X connect 20 0 21 0;
#X connect 21 0 22 0;
#X connect 22 0 1 0;
#X restore 303 262 pd createclusterrhythm;
#X obj 348 352 print rhythm:;
#X obj 46 124 bng 15 250 50 0 empty empty empty 17 7 0 10 -262144 -1
-1;
#X obj 345 321 spigot;
#X obj 374 293 tgl 15 0 empty empty empty 17 7 0 10 -262144 -1 -1 0
1;
#X obj 66 97 random 5000;
#X connect 0 0 19 0;
#X connect 1 0 7 1;
#X connect 1 0 4 0;
#X connect 2 0 24 0;
#X connect 2 1 15 0;
#X connect 2 2 5 0;
#X connect 2 3 0 0;
#X connect 3 0 2 0;
#X connect 5 0 1 0;
#X connect 5 0 12 1;
#X connect 6 0 2 0;
#X connect 6 0 21 0;
#X connect 7 0 11 0;
#X connect 7 0 17 0;
#X connect 8 0 7 0;
#X connect 9 0 10 0;
#X connect 9 0 6 0;
#X connect 10 0 7 0;
#X connect 11 0 12 0;
#X connect 12 0 13 0;
#X connect 12 0 14 0;
#X connect 14 0 9 0;
#X connect 15 0 8 0;
#X connect 16 0 2 0;
#X connect 18 0 2 0;
#X connect 19 0 7 2;
#X connect 19 0 22 0;
#X connect 22 0 20 0;
#X connect 23 0 22 1;
#X connect 24 0 6 1;
#X restore 403 205 pd clustermetro;
#X obj 383 206 bng 15 250 50 0 empty empty empty 17 7 0 10 -262144
-1 -1;
#N canvas 326 601 450 300 sel01 0;
#X obj 122 3 inlet;
#X obj 247 31 sel 0;
#X msg 225 58 0;
#X msg 275 57 1;
#X obj 49 133 spigot;
#X obj 240 5 inlet;
#X obj 47 203 outlet;
#X obj 165 105 tgl 15 0 empty empty empty 17 7 0 10 -262144 -1 -1 1
1;
#X connect 0 0 4 0;
#X connect 1 0 2 0;
#X connect 1 1 3 0;
#X connect 2 0 7 0;
#X connect 3 0 7 0;
#X connect 4 0 6 0;
#X connect 5 0 1 0;
#X connect 7 0 4 1;
#X coords 0 -1 1 1 85 25 1 100 100;
#X restore 401 228 pd sel01;
#X obj 928 212 loadbang;
#X msg 928 234 500000;
#N canvas 326 601 450 300 sel01 0;
#X obj 122 3 inlet;
#X obj 247 31 sel 0;
#X msg 225 58 0;
#X msg 275 57 1;
#X obj 49 133 spigot;
#X obj 240 5 inlet;
#X obj 47 203 outlet;
#X obj 165 105 tgl 15 0 empty empty empty 17 7 0 10 -262144 -1 -1 1
1;
#X connect 0 0 4 0;
#X connect 1 0 2 0;
#X connect 1 1 3 0;
#X connect 2 0 7 0;
#X connect 3 0 7 0;
#X connect 4 0 6 0;
#X connect 5 0 1 0;
#X connect 7 0 4 1;
#X coords 0 -1 1 1 85 25 1 100 100;
#X restore 849 298 pd sel01;
#X obj 847 222 tgl 15 0 empty empty empty 17 7 0 10 -262144 -1 -1 1
1;
#N canvas 727 49 477 425 fastclustermetro 0;
#X obj 303 241 bng 15 250 50 0 empty empty empty 17 7 0 10 -262144
-1 -1;
#X obj 247 264 + 1;
#X obj 211 109 t b b b b;
#X obj 201 15 bng 15 250 50 0 empty empty empty 17 7 0 10 -262144 -1
-1;
#X floatatom 256 287 5 0 0 0 - - -;
#X obj 247 244 random 6;
#X obj 67 123 delay 1000;
#X obj 192 324 c_multimetro 16 200;
#X obj 192 298 tgl 15 0 empty empty empty 17 7 0 10 -262144 -1 -1 1
1;
#X obj 91 319 delay 10;
#X msg 149 325 stop;
#X floatatom 89 252 5 0 0 0 - - -;
#X obj 89 276 sel 15;
#X obj 83 299 bng 15 250 50 0 empty empty empty 17 7 0 10 -262144 -1
-1;
#X obj 102 297 t b;
#X msg 192 277 1;
#X obj 223 13 loadbang;
#X obj 192 346 outlet;
#X obj 157 14 inlet;
#N canvas 1012 38 445 814 createclusterrhythm 0;
#X obj 78 50 inlet;
#X obj 52 778 outlet;
#X obj 167 187 + 50;
#X obj 68 140 t b b b b b b b b;
#X obj 148 211 random 1000;
#X obj 148 231 + 50;
#X obj 143 277 + 50;
#X obj 122 316 + 50;
#X obj 113 358 + 50;
#X obj 104 402 + 50;
#X obj 94 444 + 50;
#X obj 93 478 list append;
#X obj 92 500 list append;
#X obj 95 522 list append;
#X obj 96 544 list append;
#X obj 94 567 list append;
#X obj 95 592 list append;
#X obj 167 167 random 200;
#X obj 143 257 random 500;
#X obj 122 296 random 350;
#X obj 113 338 random 500;
#X obj 104 382 random 450;
#X obj 94 424 random 350;
#X connect 0 0 3 0;
#X connect 2 0 16 1;
#X connect 3 1 22 0;
#X connect 3 2 21 0;
#X connect 3 3 20 0;
#X connect 3 4 19 0;
#X connect 3 5 18 0;
#X connect 3 6 4 0;
#X connect 3 7 17 0;
#X connect 4 0 5 0;
#X connect 5 0 15 1;
#X connect 6 0 14 1;
#X connect 7 0 13 1;
#X connect 8 0 12 1;
#X connect 9 0 11 1;
#X connect 10 0 11 0;
#X connect 11 0 12 0;
#X connect 12 0 13 0;
#X connect 13 0 14 0;
#X connect 14 0 15 0;
#X connect 15 0 16 0;
#X connect 16 0 1 0;
#X connect 17 0 2 0;
#X connect 18 0 6 0;
#X connect 19 0 7 0;
#X connect 20 0 8 0;
#X connect 21 0 9 0;
#X connect 22 0 10 0;
#X restore 303 262 pd createclusterrhythm;
#X obj 348 352 print rhythm:;
#X obj 46 124 bng 15 250 50 0 empty empty empty 17 7 0 10 -262144 -1
-1;
#X obj 345 321 spigot;
#X obj 374 293 tgl 15 0 empty empty empty 17 7 0 10 -262144 -1 -1 0
1;
#X obj 66 97 random 2000;
#X connect 0 0 19 0;
#X connect 1 0 7 1;
#X connect 1 0 4 0;
#X connect 2 0 24 0;
#X connect 2 1 15 0;
#X connect 2 2 5 0;
#X connect 2 3 0 0;
#X connect 3 0 2 0;
#X connect 5 0 1 0;
#X connect 5 0 12 1;
#X connect 6 0 2 0;
#X connect 6 0 21 0;
#X connect 7 0 11 0;
#X connect 7 0 17 0;
#X connect 8 0 7 0;
#X connect 9 0 10 0;
#X connect 9 0 6 0;
#X connect 10 0 7 0;
#X connect 11 0 12 0;
#X connect 12 0 13 0;
#X connect 12 0 14 0;
#X connect 14 0 9 0;
#X connect 15 0 8 0;
#X connect 16 0 2 0;
#X connect 18 0 2 0;
#X connect 19 0 7 2;
#X connect 19 0 22 0;
#X connect 22 0 20 0;
#X connect 23 0 22 1;
#X connect 24 0 6 1;
#X restore 838 277 pd fastclustermetro;
#N canvas 135 379 1386 380 icedrumcomposition 0;
#X obj 82 116 g_hsl comp 0 100;
#X msg 82 95 comp \$1;
#X obj 82 73 line;
#X msg 128 49 100 180000;
#X obj 82 147 route comp;
#X floatatom 83 169 5 0 0 0 - - -;
#X obj 128 28 bng 15 250 50 0 empty empty empty 17 7 0 10 -262144 -1
-1;
#X obj 82 30 bng 15 250 50 0 empty empty empty 17 7 0 10 -262144 -1
-1;
#X obj 59 -34 inlet;
#X obj 83 190 outlet;
#X obj 37 -33 tgl 15 0 empty empty empty 17 7 0 10 -262144 -1 -1 0
1;
#X obj 204 -26 inlet;
#X msg 204 5 set 100 \$1;
#X obj 109 7 sel 0 1;
#X text 14 -62 start \, stop/reset;
#X text 210 -61 set comp length;
#X text 81 211 composition position;
#X text 1165 210 option volume control;
#X obj 1169 183 outlet;
#X msg 1169 95 gain \$1;
#X obj 1196 11 sel 0 1;
#X msg 1169 41 0 60000;
#X obj 1169 73 line;
#X obj 1169 132 g_hsl gain 0 100;
#X msg 1225 42 100 5000;
#X obj 1169 163 route gain;
#X msg 82 49 0 0;
#X obj 284 181 outlet;
#X msg 284 93 gain \$1;
#X obj 284 71 line;
#X obj 284 130 g_hsl gain 0 100;
#X obj 284 161 route gain;
#X text 280 208 drum volume control;
#X obj 449 187 outlet;
#X msg 449 99 gain \$1;
#X obj 449 77 line;
#X obj 449 136 g_hsl gain 0 100;
#X obj 449 167 route gain;
#X text 445 214 cymbal volume control;
#X msg 284 40 100 10000;
#X msg 449 46 100 10000;
#X obj 311 9 sel 30 80 0;
#X obj 476 15 sel 40 90 0;
#X text 24 289 ice drum composition;
#X obj 630 194 outlet;
#X msg 630 106 gain \$1;
#X obj 630 84 line;
#X obj 630 143 g_hsl gain 0 100;
#X obj 630 174 route gain;
#X msg 630 53 100 10000;
#X text 626 221 cymbal notes volume control;
#X obj 657 22 sel 10 100 0;
#X msg 512 47 0 20000;
#X msg 693 54 0 20000;
#X msg 347 41 0 20000;
#X connect 0 0 4 0;
#X connect 1 0 0 0;
#X connect 2 0 1 0;
#X connect 3 0 2 0;
#X connect 4 0 5 0;
#X connect 4 0 41 0;
#X connect 4 0 42 0;
#X connect 4 0 51 0;
#X connect 5 0 9 0;
#X connect 6 0 3 0;
#X connect 7 0 26 0;
#X connect 8 0 13 0;
#X connect 8 0 20 0;
#X connect 10 0 13 0;
#X connect 10 0 20 0;
#X connect 11 0 12 0;
#X connect 12 0 3 0;
#X connect 13 0 7 0;
#X connect 13 1 6 0;
#X connect 19 0 23 0;
#X connect 20 0 21 0;
#X connect 20 1 24 0;
#X connect 21 0 22 0;
#X connect 22 0 19 0;
#X connect 23 0 25 0;
#X connect 24 0 22 0;
#X connect 25 0 18 0;
#X connect 26 0 2 0;
#X connect 28 0 30 0;
#X connect 29 0 28 0;
#X connect 30 0 31 0;
#X connect 31 0 27 0;
#X connect 34 0 36 0;
#X connect 35 0 34 0;
#X connect 36 0 37 0;
#X connect 37 0 33 0;
#X connect 39 0 29 0;
#X connect 40 0 35 0;
#X connect 41 0 39 0;
#X connect 41 1 54 0;
#X connect 41 2 54 0;
#X connect 42 0 40 0;
#X connect 42 1 52 0;
#X connect 42 2 52 0;
#X connect 45 0 47 0;
#X connect 46 0 45 0;
#X connect 47 0 48 0;
#X connect 48 0 44 0;
#X connect 49 0 46 0;
#X connect 51 0 49 0;
#X connect 51 1 53 0;
#X connect 51 2 53 0;
#X connect 52 0 35 0;
#X connect 53 0 46 0;
#X connect 54 0 29 0;
#X restore 9 133 pd icedrumcomposition;
#N canvas 412 52 193 220 icemetro 0;
#X obj -2 69 tgl 15 0 empty empty empty 17 7 0 10 -262144 -1 -1 1 1
;
#X obj -2 88 c_multimetro 16 187;
#X obj 20 68 loadbang;
#X obj 2 134 outlet;
#X connect 0 0 1 0;
#X connect 1 0 3 0;
#X connect 2 0 0 0;
#X restore -8 183 pd icemetro;
#N canvas 609 523 957 338 snowbellscomposition 0;
#X obj 82 116 g_hsl comp 0 100;
#X msg 82 95 comp \$1;
#X obj 82 73 line;
#X msg 128 49 100 360000;
#X obj 82 147 route comp;
#X floatatom 83 169 5 0 0 0 - - -;
#X obj 128 28 bng 15 250 50 0 empty empty empty 17 7 0 10 -262144 -1
-1;
#X obj 82 30 bng 15 250 50 0 empty empty empty 17 7 0 10 -262144 -1
-1;
#X obj 59 -34 inlet;
#X obj 83 190 outlet;
#X obj 37 -33 tgl 15 0 empty empty empty 17 7 0 10 -262144 -1 -1 0
1;
#X obj 204 -26 inlet;
#X msg 204 5 set 100 \$1;
#X obj 109 7 sel 0 1;
#X text 14 -62 start \, stop/reset;
#X text 210 -61 set comp length;
#X text 81 211 composition position;
#X msg 82 49 0 0;
#X obj 294 191 outlet;
#X msg 294 103 gain \$1;
#X msg 357 51 0 60000;
#X obj 294 81 line;
#X obj 294 140 g_hsl gain 0 100;
#X obj 294 171 route gain;
#X msg 294 50 100 10000;
#X obj 321 19 sel 1 100 0;
#X text 290 218 bells gain;
#X text 47 256 snow bells composition;
#X obj 439 191 outlet;
#X msg 439 103 gain \$1;
#X obj 439 81 line;
#X obj 439 140 g_hsl gain 0 100;
#X obj 439 171 route gain;
#X obj 466 19 sel 1 100 0;
#X text 435 218 snowfield gain;
#X msg 439 50 100 2000;
#X msg 502 51 0 5000;
#X connect 0 0 4 0;
#X connect 1 0 0 0;
#X connect 2 0 1 0;
#X connect 3 0 2 0;
#X connect 4 0 5 0;
#X connect 4 0 25 0;
#X connect 4 0 33 0;
#X connect 5 0 9 0;
#X connect 6 0 3 0;
#X connect 7 0 17 0;
#X connect 8 0 13 0;
#X connect 10 0 13 0;
#X connect 11 0 12 0;
#X connect 12 0 3 0;
#X connect 13 0 7 0;
#X connect 13 1 6 0;
#X connect 17 0 2 0;
#X connect 19 0 22 0;
#X connect 20 0 21 0;
#X connect 21 0 19 0;
#X connect 22 0 23 0;
#X connect 23 0 18 0;
#X connect 24 0 21 0;
#X connect 25 0 24 0;
#X connect 25 1 20 0;
#X connect 25 2 20 0;
#X connect 29 0 31 0;
#X connect 30 0 29 0;
#X connect 31 0 32 0;
#X connect 32 0 28 0;
#X connect 33 0 35 0;
#X connect 33 1 36 0;
#X connect 33 2 36 0;
#X connect 35 0 30 0;
#X connect 36 0 30 0;
#X restore 637 222 pd snowbellscomposition;
#N canvas 0 22 450 300 snowmetro 0;
#X obj 69 113 outlet;
#X obj 290 18 inlet;
#X obj 69 72 tgl 15 0 empty empty empty 17 7 0 10 -262144 -1 -1 1 1
;
#X obj 69 92 c_multimetro 16 187;
#X obj 69 50 loadbang;
#N canvas 416 393 791 512 rhythmChanger 0;
#X obj 343 21 inlet;
#X obj 323 323 outlet;
#X obj 20 146 bng 15 250 50 0 empty empty empty 17 7 0 10 -262144 -1
-1;
#X floatatom 19 252 5 0 0 0 - - -;
#X obj 19 185 bng 15 250 50 0 empty empty empty 17 7 0 10 -262144 -1
-1;
#X obj 19 208 bng 15 250 50 0 empty empty empty 17 7 0 10 -262144 -1
-1;
#X obj 38 185 delay 230000;
#X msg 38 145 187 120000;
#X obj 19 164 select 187;
#X obj 129 146 bng 15 250 50 0 empty empty empty 17 7 0 10 -262144
-1 -1;
#X floatatom 130 252 5 0 0 0 - - -;
#X obj 128 185 bng 15 250 50 0 empty empty empty 17 7 0 10 -262144
-1 -1;
#X obj 128 208 bng 15 250 50 0 empty empty empty 17 7 0 10 -262144
-1 -1;
#X obj 147 185 delay 230000;
#X msg 147 145 187 120000;
#X obj 128 164 select 187;
#X obj 232 144 bng 15 250 50 0 empty empty empty 17 7 0 10 -262144
-1 -1;
#X floatatom 233 250 5 0 0 0 - - -;
#X obj 231 183 bng 15 250 50 0 empty empty empty 17 7 0 10 -262144
-1 -1;
#X obj 231 206 bng 15 250 50 0 empty empty empty 17 7 0 10 -262144
-1 -1;
#X obj 250 183 delay 230000;
#X msg 250 143 187 120000;
#X obj 231 162 select 187;
#X obj 337 143 bng 15 250 50 0 empty empty empty 17 7 0 10 -262144
-1 -1;
#X floatatom 338 249 5 0 0 0 - - -;
#X obj 336 182 bng 15 250 50 0 empty empty empty 17 7 0 10 -262144
-1 -1;
#X obj 336 205 bng 15 250 50 0 empty empty empty 17 7 0 10 -262144
-1 -1;
#X obj 355 182 delay 230000;
#X msg 355 142 187 120000;
#X obj 336 161 select 187;
#X obj 435 144 bng 15 250 50 0 empty empty empty 17 7 0 10 -262144
-1 -1;
#X floatatom 436 250 5 0 0 0 - - -;
#X obj 434 183 bng 15 250 50 0 empty empty empty 17 7 0 10 -262144
-1 -1;
#X obj 434 206 bng 15 250 50 0 empty empty empty 17 7 0 10 -262144
-1 -1;
#X obj 453 183 delay 230000;
#X msg 453 143 187 120000;
#X obj 434 162 select 187;
#X obj 537 145 bng 15 250 50 0 empty empty empty 17 7 0 10 -262144
-1 -1;
#X floatatom 538 251 5 0 0 0 - - -;
#X obj 536 184 bng 15 250 50 0 empty empty empty 17 7 0 10 -262144
-1 -1;
#X obj 536 207 bng 15 250 50 0 empty empty empty 17 7 0 10 -262144
-1 -1;
#X obj 555 184 delay 230000;
#X msg 555 144 187 120000;
#X obj 536 163 select 187;
#X obj 640 146 bng 15 250 50 0 empty empty empty 17 7 0 10 -262144
-1 -1;
#X floatatom 641 252 5 0 0 0 - - -;
#X obj 639 185 bng 15 250 50 0 empty empty empty 17 7 0 10 -262144
-1 -1;
#X obj 639 208 bng 15 250 50 0 empty empty empty 17 7 0 10 -262144
-1 -1;
#X obj 658 185 delay 230000;
#X msg 658 145 187 120000;
#X obj 639 164 select 187;
#X obj 285 303 pack f f f f f f f;
#X obj 129 231 line 150 300;
#X obj 232 229 line 212 300;
#X obj 337 228 line 367 300;
#X obj 435 229 line 165 300;
#X obj 537 230 line 196 300;
#X obj 640 231 line 259 300;
#X obj 20 231 line 300 300;
#X msg 38 208 300 200000;
#X msg 147 208 150 180000;
#X msg 250 206 212 130000;
#X msg 355 206 367 100000;
#X msg 453 206 165 125000;
#X msg 555 207 196 135000;
#X msg 658 208 259 137000;
#X obj 343 41 sel 1 0;
#X text 458 11 sends slowly shifting period lists to c_multimetro;
#X text 460 33 starts and stop/resets by toggle through the inlet;
#X connect 0 0 66 0;
#X connect 2 0 7 0;
#X connect 3 0 51 0;
#X connect 4 0 6 0;
#X connect 6 0 59 0;
#X connect 6 0 5 0;
#X connect 7 0 58 0;
#X connect 8 0 4 0;
#X connect 9 0 14 0;
#X connect 10 0 51 1;
#X connect 11 0 13 0;
#X connect 13 0 60 0;
#X connect 13 0 12 0;
#X connect 14 0 52 0;
#X connect 15 0 11 0;
#X connect 16 0 21 0;
#X connect 17 0 51 2;
#X connect 18 0 20 0;
#X connect 20 0 61 0;
#X connect 20 0 19 0;
#X connect 21 0 53 0;
#X connect 22 0 18 0;
#X connect 23 0 28 0;
#X connect 24 0 51 3;
#X connect 25 0 27 0;
#X connect 27 0 62 0;
#X connect 27 0 26 0;
#X connect 28 0 54 0;
#X connect 29 0 25 0;
#X connect 30 0 35 0;
#X connect 31 0 51 4;
#X connect 32 0 34 0;
#X connect 34 0 63 0;
#X connect 34 0 33 0;
#X connect 35 0 55 0;
#X connect 36 0 32 0;
#X connect 37 0 42 0;
#X connect 38 0 51 5;
#X connect 39 0 41 0;
#X connect 41 0 64 0;
#X connect 41 0 40 0;
#X connect 42 0 56 0;
#X connect 43 0 39 0;
#X connect 44 0 49 0;
#X connect 45 0 51 6;
#X connect 46 0 48 0;
#X connect 48 0 65 0;
#X connect 48 0 47 0;
#X connect 49 0 57 0;
#X connect 50 0 46 0;
#X connect 51 0 1 0;
#X connect 52 0 10 0;
#X connect 52 0 15 0;
#X connect 53 0 17 0;
#X connect 53 0 22 0;
#X connect 54 0 24 0;
#X connect 54 0 29 0;
#X connect 55 0 31 0;
#X connect 55 0 36 0;
#X connect 56 0 38 0;
#X connect 56 0 43 0;
#X connect 57 0 45 0;
#X connect 57 0 50 0;
#X connect 58 0 3 0;
#X connect 58 0 8 0;
#X connect 59 0 58 0;
#X connect 60 0 52 0;
#X connect 61 0 53 0;
#X connect 62 0 54 0;
#X connect 63 0 55 0;
#X connect 64 0 56 0;
#X connect 65 0 57 0;
#X connect 66 0 2 0;
#X connect 66 0 9 0;
#X connect 66 0 16 0;
#X connect 66 0 23 0;
#X connect 66 0 30 0;
#X connect 66 0 37 0;
#X connect 66 0 44 0;
#X connect 66 1 5 0;
#X connect 66 1 12 0;
#X connect 66 1 19 0;
#X connect 66 1 26 0;
#X connect 66 1 33 0;
#X connect 66 1 40 0;
#X connect 66 1 47 0;
#X restore 136 71 pd rhythmChanger;
#X floatatom 120 113 5 0 0 0 - - -;
#X connect 1 0 5 0;
#X connect 2 0 3 0;
#X connect 3 0 6 0;
#X connect 3 0 0 0;
#X connect 4 0 2 0;
#X connect 5 0 3 2;
#X restore 548 263 pd snowmetro;
#N canvas 416 350 923 347 clusterscomposition 0;
#X obj 82 116 g_hsl comp 0 100;
#X msg 82 95 comp \$1;
#X obj 82 73 line;
#X msg 128 49 100 240000;
#X obj 82 147 route comp;
#X floatatom 83 169 5 0 0 0 - - -;
#X obj 128 28 bng 15 250 50 0 empty empty empty 17 7 0 10 -262144 -1
-1;
#X obj 82 30 bng 15 250 50 0 empty empty empty 17 7 0 10 -262144 -1
-1;
#X obj 59 -34 inlet;
#X obj 83 190 outlet;
#X obj 37 -33 tgl 15 0 empty empty empty 17 7 0 10 -262144 -1 -1 0
1;
#X obj 204 -26 inlet;
#X msg 204 5 set 100 \$1;
#X obj 109 7 sel 0 1;
#X text 14 -62 start \, stop/reset;
#X text 210 -61 set comp length;
#X text 81 211 composition position;
#X msg 82 49 0 0;
#X obj 283 186 outlet;
#X msg 283 98 gain \$1;
#X obj 283 76 line;
#X obj 283 135 g_hsl gain 0 100;
#X obj 283 166 route gain;
#X msg 283 45 100 10000;
#X obj 310 14 sel 10 90 0;
#X obj 437 187 outlet;
#X msg 437 99 gain \$1;
#X obj 437 77 line;
#X obj 437 136 g_hsl gain 0 100;
#X obj 437 167 route gain;
#X text 279 213 cluster note volume;
#X text 433 215 cluster cymbal volume;
#X obj 464 15 sel 1 100 0;
#X msg 500 47 0 20000;
#X msg 346 46 0 20000;
#X msg 437 46 95 5000;
#X connect 0 0 4 0;
#X connect 1 0 0 0;
#X connect 2 0 1 0;
#X connect 3 0 2 0;
#X connect 4 0 5 0;
#X connect 4 0 24 0;
#X connect 4 0 32 0;
#X connect 5 0 9 0;
#X connect 6 0 3 0;
#X connect 7 0 17 0;
#X connect 8 0 13 0;
#X connect 10 0 13 0;
#X connect 11 0 12 0;
#X connect 12 0 3 0;
#X connect 13 0 7 0;
#X connect 13 1 6 0;
#X connect 17 0 2 0;
#X connect 19 0 21 0;
#X connect 20 0 19 0;
#X connect 21 0 22 0;
#X connect 22 0 18 0;
#X connect 23 0 20 0;
#X connect 24 0 23 0;
#X connect 24 1 34 0;
#X connect 24 2 34 0;
#X connect 26 0 28 0;
#X connect 27 0 26 0;
#X connect 28 0 29 0;
#X connect 29 0 25 0;
#X connect 32 0 35 0;
#X connect 32 1 33 0;
#X connect 32 2 33 0;
#X connect 33 0 27 0;
#X connect 34 0 20 0;
#X connect 35 0 27 0;
#X restore 292 143 pd clusterscomposition;
#N canvas 260 63 592 279 clusterverb 0;
#X obj 203 -45 loadbang;
#X msg 203 -24 amp 100 \, hall 85 \, freq 6000 \, damp 60 \, dry 0.75
;
#X obj -115 -1 inlet~;
#X obj 53 -9 inlet~;
#X obj -119 57 outlet~;
#X obj 54 47 outlet~;
#X text -47 -72 stereo reverb with basic settings;
#X obj 61 21 e_reverb \$0-clusterverbR;
#X obj -115 32 e_reverb \$0-clusterverbL;
#X connect 0 0 1 0;
#X connect 1 0 7 1;
#X connect 1 0 8 1;
#X connect 2 0 8 0;
#X connect 3 0 7 0;
#X connect 7 0 5 0;
#X connect 8 0 4 0;
#X restore 338 283 pd clusterverb;
#N canvas 542 22 465 348 inputReverb 0;
#X obj 34 30 inlet~;
#X obj 35 280 outlet~;
#X obj 95 279 outlet~;
#X obj 174 130 loadbang;
#X msg 152 157 amp 100 \, hall 85 \, freq 6000 \, damp 60 \, dry 0
;
#X obj 172 27 inlet;
#X obj 36 75 *~;
#X msg 245 71 1;
#X msg 213 70 0;
#X obj 239 37 sel 0 1;
#X obj 69 194 e_reverb \$0-inputreverb;
#X connect 0 0 6 0;
#X connect 3 0 4 0;
#X connect 4 0 10 1;
#X connect 5 0 9 0;
#X connect 6 0 10 0;
#X connect 7 0 6 1;
#X connect 8 0 6 1;
#X connect 9 0 8 0;
#X connect 9 1 7 0;
#X connect 10 0 1 0;
#X connect 10 1 2 0;
#X restore 571 513 pd inputReverb;
#X msg 724 196 360000;
#N canvas 119 330 846 648 cymNotes 0;
#X obj 98 29 inlet;
#X obj 101 55 bng 15 250 50 0 empty empty empty 17 7 0 10 -262144 -1
-1;
#X obj 182 373 s_playtable;
#X obj 103 202 random 50;
#X obj 103 245 / 100;
#X obj 103 177 bng 15 250 50 0 empty empty empty 17 7 0 10 -262144
-1 -1;
#X obj 103 327 list append;
#X obj 103 224 + 40;
#X obj 361 471 + 0.4;
#X obj 178 561 outlet~;
#X obj 311 561 outlet~;
#X obj 179 478 g_vol2;
#X obj 254 478 loadbang;
#X obj 641 127 inlet;
#X obj 387 385 loadbang;
#X text 108 159 gain;
#X text 209 155 pitch;
#X obj 98 407 e_reverb cymnotesverb;
#X obj 346 243 / 100;
#X obj 346 223 random 20;
#X obj 346 264 + 0.4;
#X obj 241 417 e_pan;
#X obj 346 203 t b;
#X msg 385 407 amp 100 \, hall 85 \, freq 6000 \, damp 60 \, dry 0
;
#X obj 171 265 / 130.8;
#X obj 171 244 mtof;
#X obj 276 244 / 1000;
#X obj 171 305 * 1;
#X obj 275 224 random 15;
#X obj 275 264 + 0.99;
#X obj 171 285 * 1;
#X obj 173 201 random 7;
#X text 573 20 cymbal notes;
#X obj 103 347 list prepend 0-cymbalNote;
#X text 341 177 pan;
#X obj 172 224 m_minorscale 33;
#X obj 213 178 t b b;
#X msg 254 499 80;
#X obj 640 147 * 0.8;
#X obj 100 78 c_pass 8;
#X connect 0 0 1 0;
#X connect 1 0 39 0;
#X connect 2 0 17 0;
#X connect 2 0 21 0;
#X connect 3 0 7 0;
#X connect 4 0 6 0;
#X connect 5 0 3 0;
#X connect 5 0 22 0;
#X connect 5 0 36 0;
#X connect 6 0 33 0;
#X connect 7 0 4 0;
#X connect 11 0 9 0;
#X connect 11 1 10 0;
#X connect 12 0 37 0;
#X connect 13 0 38 0;
#X connect 14 0 23 0;
#X connect 17 0 11 0;
#X connect 17 1 11 1;
#X connect 18 0 20 0;
#X connect 19 0 18 0;
#X connect 20 0 21 1;
#X connect 21 0 11 0;
#X connect 21 1 11 1;
#X connect 22 0 19 0;
#X connect 23 0 17 1;
#X connect 24 0 30 0;
#X connect 25 0 24 0;
#X connect 26 0 29 0;
#X connect 27 0 6 1;
#X connect 28 0 26 0;
#X connect 29 0 27 1;
#X connect 30 0 27 0;
#X connect 31 0 35 0;
#X connect 33 0 2 0;
#X connect 35 0 25 0;
#X connect 36 0 31 0;
#X connect 36 1 28 0;
#X connect 37 0 11 2;
#X connect 38 0 11 2;
#X connect 39 0 5 0;
#X restore 170 235 pd cymNotes;
#X text 931 193 default;
#X msg 818 162 1;
#X obj 290 169 s clustercomp;
#X obj 10 156 s icedrumcomp;
#X obj 636 244 s snowbellcomp;
#X msg 853 163 0;
#X floatatom 844 352 5 0 0 0 - - -;
#X obj 891 331 s defaultvol;
#N canvas 0 22 450 300 gui_input 0;
#X obj 52 25 inlet~;
#X obj 134 34 env~;
#X msg 69 95 1;
#X obj 65 72 loadbang;
#X obj 15 126 g_showimage ../marker.jpg 160 160;
#X msg 135 96 move \$1 20;
#X obj 133 58 * 3.2;
#X connect 0 0 1 0;
#X connect 1 0 6 0;
#X connect 2 0 4 0;
#X connect 3 0 2 0;
#X connect 5 0 4 1;
#X connect 6 0 5 0;
#X restore 703 487 pd gui_input;
#X obj 819 128 sel 0 1;
#X obj 695 35 sel 1;
#X floatatom 722 315 5 0 0 0 - - -;
#X obj 654 325 t b;
#X obj 846 329 t b;
#X msg 882 353 set \$1;
#X msg 722 293 set \$1;
#N canvas 807 262 519 343 defaultcomposition 0;
#X obj 82 116 g_hsl comp 0 100;
#X msg 82 95 comp \$1;
#X obj 82 73 line;
#X msg 128 49 100 500000;
#X obj 82 147 route comp;
#X floatatom 83 169 5 0 0 0 - - -;
#X obj 128 28 bng 15 250 50 0 empty empty empty 17 7 0 10 -262144 -1
-1;
#X obj 82 30 bng 15 250 50 0 empty empty empty 17 7 0 10 -262144 -1
-1;
#X obj 59 -34 inlet;
#X obj 83 190 outlet;
#X obj 37 -33 tgl 15 0 empty empty empty 17 7 0 10 -262144 -1 -1 0
1;
#X obj 204 -26 inlet;
#X msg 204 5 set 100 \$1;
#X obj 109 7 sel 0 1;
#X text 14 -62 start \, stop/reset;
#X text 210 -61 set comp length;
#X text 81 211 composition position;
#X obj 289 182 outlet;
#X msg 289 94 gain \$1;
#X obj 316 10 sel 0 1;
#X obj 289 72 line;
#X obj 289 131 g_hsl gain 0 100;
#X obj 289 162 route gain;
#X msg 82 49 0 0;
#X text 285 209 snow field volume;
#X msg 289 40 0 10000;
#X msg 345 41 95 10000;
#X connect 0 0 4 0;
#X connect 1 0 0 0;
#X connect 2 0 1 0;
#X connect 3 0 2 0;
#X connect 4 0 5 0;
#X connect 5 0 9 0;
#X connect 6 0 3 0;
#X connect 7 0 23 0;
#X connect 8 0 13 0;
#X connect 8 0 19 0;
#X connect 10 0 13 0;
#X connect 10 0 19 0;
#X connect 11 0 12 0;
#X connect 12 0 3 0;
#X connect 13 0 7 0;
#X connect 13 1 6 0;
#X connect 18 0 21 0;
#X connect 19 0 25 0;
#X connect 19 1 26 0;
#X connect 20 0 18 0;
#X connect 21 0 22 0;
#X connect 22 0 17 0;
#X connect 23 0 2 0;
#X connect 25 0 20 0;
#X connect 26 0 20 0;
#X restore 847 254 pd defaultcomposition;
#X msg 695 58 1;
#X msg 90 113 180000;
#X msg 373 123 240000;
#X obj 569 466 adc~;
#N canvas 216 353 195 159 output 0;
#X obj 16 12 inlet~;
#X obj 106 13 inlet~;
#X obj 16 38 hip~ 1;
#X obj 16 63 clip~ -1 1;
#X obj 30 128 dac~;
#X obj 106 37 hip~ 1;
#X obj 106 62 clip~ -1 1;
#X connect 0 0 2 0;
#X connect 1 0 5 0;
#X connect 2 0 3 0;
#X connect 3 0 4 0;
#X connect 5 0 6 0;
#X connect 6 0 4 1;
#X restore 59 464 pd output;
#X obj -25 46 hsl 128 15 0 127 0 0 empty empty empty -2 -8 0 10 -262144
-1 -1 0 1;
#X obj -28 24 r icedrumcomp;
#X obj 120 46 hsl 128 15 0 127 0 0 empty empty empty -2 -8 0 10 -262144
-1 -1 0 1;
#X obj 117 24 r clustercomp;
#X obj 258 46 hsl 128 15 0 127 0 0 empty empty empty -2 -8 0 10 -262144
-1 -1 0 1;
#X obj 255 24 r snowbellcomp;
#X obj 395 46 hsl 128 15 0 127 0 0 empty empty empty -2 -8 0 10 -262144
-1 -1 9500 1;
#X obj 392 25 r defaultvol;
#X obj 578 -30 r icedrumswitchin;
#X obj 693 -28 r clusterswitchin;
#X obj 808 -27 r snowbellswitchin;
#X obj 933 -26 r fxswitchin;
#X text 879 518;
#X text -32 -25;
#X text -36 -44 Nordlig Vinter - Charles Martin - nordligvinter_main.pd
- Performance Version!;
#X connect 5 0 9 0;
#X connect 5 0 67 0;
#X connect 6 0 10 0;
#X connect 6 0 68 0;
#X connect 7 0 11 0;
#X connect 7 0 67 0;
#X connect 8 0 12 0;
#X connect 8 0 67 0;
#X connect 13 0 79 0;
#X connect 13 1 79 1;
#X connect 14 0 56 0;
#X connect 19 0 51 0;
#X connect 19 0 52 0;
#X connect 20 0 55 1;
#X connect 21 0 23 0;
#X connect 21 0 70 0;
#X connect 22 0 13 0;
#X connect 23 0 79 0;
#X connect 23 1 79 1;
#X connect 24 0 30 0;
#X connect 24 1 30 1;
#X connect 25 0 27 0;
#X connect 25 0 26 0;
#X connect 25 0 24 0;
#X connect 25 0 57 0;
#X connect 26 0 30 0;
#X connect 26 1 30 1;
#X connect 27 0 30 0;
#X connect 27 1 30 1;
#X connect 28 0 76 0;
#X connect 29 0 49 0;
#X connect 30 0 79 0;
#X connect 30 1 79 1;
#X connect 31 0 30 2;
#X connect 32 0 31 0;
#X connect 33 0 34 0;
#X connect 33 0 35 0;
#X connect 35 0 39 0;
#X connect 36 0 77 0;
#X connect 37 0 53 0;
#X connect 38 0 54 0;
#X connect 38 1 54 1;
#X connect 39 0 54 0;
#X connect 39 1 54 1;
#X connect 41 0 42 0;
#X connect 41 0 43 0;
#X connect 43 0 38 0;
#X connect 44 0 45 0;
#X connect 44 0 47 0;
#X connect 45 0 74 1;
#X connect 46 0 23 0;
#X connect 46 0 71 0;
#X connect 47 0 74 0;
#X connect 48 0 46 0;
#X connect 49 0 61 0;
#X connect 49 1 27 1;
#X connect 49 2 26 1;
#X connect 49 3 57 1;
#X connect 49 4 25 1;
#X connect 49 4 24 2;
#X connect 50 0 25 0;
#X connect 51 0 13 1;
#X connect 51 0 62 0;
#X connect 51 1 13 2;
#X connect 51 1 22 1;
#X connect 51 2 21 1;
#X connect 51 2 73 0;
#X connect 52 0 22 0;
#X connect 52 0 21 0;
#X connect 53 0 60 0;
#X connect 53 1 39 1;
#X connect 53 1 35 1;
#X connect 53 2 43 1;
#X connect 53 2 38 2;
#X connect 54 0 79 0;
#X connect 54 1 79 1;
#X connect 55 0 79 0;
#X connect 55 1 79 1;
#X connect 56 0 51 1;
#X connect 57 0 30 0;
#X connect 57 1 30 1;
#X connect 59 0 47 0;
#X connect 63 0 47 0;
#X connect 64 0 23 2;
#X connect 67 0 59 0;
#X connect 67 1 63 0;
#X connect 68 0 75 0;
#X connect 69 0 23 2;
#X connect 70 0 69 0;
#X connect 71 0 64 0;
#X connect 72 0 64 0;
#X connect 73 0 69 0;
#X connect 74 0 46 1;
#X connect 74 1 65 0;
#X connect 74 1 72 0;
#X connect 75 0 47 0;
#X connect 76 0 49 1;
#X connect 77 0 53 1;
#X connect 78 0 55 0;
#X connect 78 0 66 0;
#X connect 78 1 66 0;
#X connect 81 0 80 0;
#X connect 83 0 82 0;
#X connect 85 0 84 0;
#X connect 87 0 86 0;
#X connect 88 0 5 0;
#X connect 89 0 6 0;
#X connect 90 0 7 0;
#X connect 91 0 8 0;
