#N canvas 850 232 455 396 10;
#X obj 92 115 t a b;
#X obj 281 119 t a b;
#X obj 119 139 random 10000;
#X obj 308 143 random 10000;
#X obj 96 218 spigot;
#X obj 119 161 / 10000;
#X obj 309 166 / 10000;
#X obj 283 220 spigot;
#X obj 310 192 <;
#X obj 120 188 <;
#X obj 130 270 outlet;
#X obj 298 61 \$1;
#X obj 398 188 f;
#X obj 196 175 f;
#X obj 398 145 * -1;
#X obj 398 167 + 1;
#X obj 64 17 inlet;
#X obj 194 15 inlet;
#X obj 368 17 inlet;
#X obj 289 31 loadbang;
#X connect 0 0 4 0;
#X connect 0 1 2 0;
#X connect 1 0 7 0;
#X connect 1 1 3 0;
#X connect 2 0 5 0;
#X connect 3 0 6 0;
#X connect 4 0 10 0;
#X connect 5 0 9 0;
#X connect 6 0 8 0;
#X connect 7 0 10 0;
#X connect 8 0 7 1;
#X connect 9 0 4 1;
#X connect 11 0 13 0;
#X connect 11 0 14 0;
#X connect 12 0 8 1;
#X connect 13 0 9 1;
#X connect 14 0 15 0;
#X connect 15 0 12 0;
#X connect 16 0 0 0;
#X connect 17 0 1 0;
#X connect 18 0 14 0;
#X connect 18 0 13 0;
#X connect 19 0 11 0;
