#N canvas 486 73 1111 828 10;
#X declare -path .;
#X declare -path rj;
#X declare -path .;
#X declare -path rj;
#X declare -path .;
#X declare -path rj;
#X declare -path .;
#X declare -path rj;
#X declare -path .;
#X declare -path rj;
#X declare -path .;
#X declare -path rj;
#X declare -path .;
#X declare -path rj;
#X declare -path .;
#X declare -path rj;
#X declare -path percsamples;
#X declare -path fieldrecordings;
#X obj 814 450 declare -path .;
#X obj 811 473 declare -path rj;
#X obj 578 -7 tgl 15 0 empty empty empty 17 7 0 10 -262144 -1 -1 1
1;
#X obj 694 -7 tgl 15 0 empty empty empty 17 7 0 10 -262144 -1 -1 0
1;
#X obj 808 -5 tgl 15 0 empty empty empty 17 7 0 10 -262144 -1 -1 0
1;
#X obj 933 -4 tgl 15 0 empty empty empty 17 7 0 10 -262144 -1 -1 0
1;
#X obj 578 12 s but1;
#X obj 694 11 s but2;
#X obj 808 15 s but3;
#X obj 933 16 s but4;
#N canvas 394 22 1025 604 bellsong 0;
#X obj 407 33 inlet;
#X obj 429 580 outlet~;
#X obj 479 579 outlet~;
#X obj 409 175 random 3;
#X obj 407 199 sel 0 1 2;
#X msg 21 120 0;
#X obj 21 142 s noteRange;
#X obj 21 98 loadbang;
#X text 13 3 Snow bell composition;
#X text 13 17 starts playing Cs \, spreads out to c minor scale \,
returns to Cs;
#N canvas 22 268 993 272 bellcomp 0;
#X obj 66 14 inlet;
#X obj 58 152 outlet;
#X obj 420 157 outlet;
#X obj 71 56 moses 25;
#X obj 59 85 * 2;
#X obj 114 84 moses 75;
#X msg 109 118 50;
#X obj 153 141 * 2;
#X obj 182 77 * -1;
#X obj 152 116 + 100;
#X obj 416 33 moses 25;
#X obj 527 54 * -1;
#X obj 497 93 + 100;
#X obj 404 62 * 24;
#X obj 403 86 / 25;
#X obj 459 61 moses 50;
#X obj 498 118 / 50;
#X obj 491 148 * 24;
#X msg 454 95 24;
#X connect 0 0 3 0;
#X connect 0 0 10 0;
#X connect 3 0 4 0;
#X connect 3 1 5 0;
#X connect 4 0 1 0;
#X connect 5 0 6 0;
#X connect 5 1 8 0;
#X connect 6 0 1 0;
#X connect 7 0 1 0;
#X connect 8 0 9 0;
#X connect 9 0 7 0;
#X connect 10 0 13 0;
#X connect 10 1 15 0;
#X connect 11 0 12 0;
#X connect 12 0 16 0;
#X connect 13 0 14 0;
#X connect 14 0 2 0;
#X connect 15 0 18 0;
#X connect 15 1 11 0;
#X connect 16 0 17 0;
#X connect 17 0 2 0;
#X connect 18 0 2 0;
#X restore 740 539 pd bellcomp;
#X obj 739 508 inlet;
#X obj 722 564 s ampOffset;
#X obj 799 564 s noteRange;
#X floatatom 820 540 5 0 0 0 - - -;
#X floatatom 699 539 5 0 0 0 - - -;
#X text 21 77 init vars;
#X text 714 478 composition;
#X text 909 511 gain;
#X obj 909 530 inlet;
#X obj 440 524 g_vol2;
#X obj 407 115 c_multipass;
#X obj 420 71 loadbang;
#X msg 420 93 90 7 4 15 97 10 2 3 95 4 6 6 95 2 4 9;
#X obj 891 560 * 0.95;
#X obj 136 468 reversebellsynth;
#X obj 189 421 pack f f;
#X obj 242 326 / 100;
#X obj 242 284 random 15;
#X obj 242 305 + 85;
#X obj 242 348 * 127;
#X obj 183 284 t b b;
#X obj 183 239 bng 15 250 50 0 empty empty empty 17 7 0 10 -262144
-1 -1;
#X obj 105 359 m_minorscale 36;
#X obj 105 315 r noteRange;
#X floatatom 110 381 5 0 0 0 - - -;
#X floatatom 242 369 5 0 0 0 - - -;
#X obj 425 419 pack f f;
#X obj 478 324 / 100;
#X obj 478 282 random 15;
#X obj 478 303 + 85;
#X obj 478 346 * 127;
#X obj 419 282 t b b;
#X obj 419 237 bng 15 250 50 0 empty empty empty 17 7 0 10 -262144
-1 -1;
#X obj 341 336 random 24;
#X obj 341 313 r noteRange;
#X floatatom 346 379 5 0 0 0 - - -;
#X floatatom 478 367 5 0 0 0 - - -;
#X obj 636 413 pack f f;
#X obj 676 335 / 100;
#X obj 676 293 random 15;
#X obj 676 314 + 85;
#X obj 676 357 * 127;
#X obj 630 276 t b b;
#X obj 630 231 bng 15 250 50 0 empty empty empty 17 7 0 10 -262144
-1 -1;
#X obj 575 303 r noteRange;
#X floatatom 580 369 5 0 0 0 - - -;
#X floatatom 676 378 5 0 0 0 - - -;
#X obj 341 357 m_minorscale 48;
#X obj 575 347 m_minorscale 24;
#X obj 105 338 random 24;
#X obj 575 326 random 24;
#X obj 339 461 reversebellsynth;
#X obj 539 465 reversebellsynth;
#X connect 0 0 21 0;
#X connect 3 0 4 0;
#X connect 4 0 32 0;
#X connect 4 1 43 0;
#X connect 4 2 54 0;
#X connect 5 0 6 0;
#X connect 7 0 5 0;
#X connect 10 0 12 0;
#X connect 10 0 15 0;
#X connect 10 1 13 0;
#X connect 10 1 14 0;
#X connect 11 0 10 0;
#X connect 19 0 24 0;
#X connect 20 0 1 0;
#X connect 20 1 2 0;
#X connect 21 0 3 0;
#X connect 22 0 23 0;
#X connect 23 0 21 1;
#X connect 24 0 20 2;
#X connect 25 0 20 0;
#X connect 25 1 20 1;
#X connect 26 0 25 0;
#X connect 27 0 30 0;
#X connect 28 0 29 0;
#X connect 29 0 27 0;
#X connect 30 0 26 1;
#X connect 30 0 36 0;
#X connect 31 0 60 0;
#X connect 31 1 28 0;
#X connect 32 0 31 0;
#X connect 33 0 26 0;
#X connect 33 0 35 0;
#X connect 34 0 60 1;
#X connect 37 0 62 0;
#X connect 38 0 41 0;
#X connect 39 0 40 0;
#X connect 40 0 38 0;
#X connect 41 0 37 1;
#X connect 41 0 47 0;
#X connect 42 0 44 0;
#X connect 42 1 39 0;
#X connect 43 0 42 0;
#X connect 44 0 58 0;
#X connect 45 0 44 1;
#X connect 48 0 63 0;
#X connect 49 0 52 0;
#X connect 50 0 51 0;
#X connect 51 0 49 0;
#X connect 52 0 48 1;
#X connect 52 0 57 0;
#X connect 53 0 61 0;
#X connect 53 1 50 0;
#X connect 54 0 53 0;
#X connect 55 0 61 1;
#X connect 58 0 46 0;
#X connect 58 0 37 0;
#X connect 59 0 56 0;
#X connect 59 0 48 0;
#X connect 60 0 33 0;
#X connect 61 0 59 0;
#X connect 62 0 20 0;
#X connect 62 1 20 1;
#X connect 63 0 20 0;
#X connect 63 1 20 1;
#X restore 521 293 pd bellsong;
#X obj 637 122 loadbang;
#X text 600 -9 Ice Drum;
#X text 716 -9 Clusters;
#X text 827 -5 Snow Bells;
#X text 952 -4 fx;
#X obj 588 161 r but3;
#N canvas 326 601 450 300 sel01 0;
#X obj 122 3 inlet;
#X obj 247 31 sel 0;
#X msg 225 58 0;
#X msg 275 57 1;
#X obj 49 133 spigot;
#X obj 240 5 inlet;
#X obj 47 203 outlet;
#X obj 165 105 tgl 15 0 empty empty empty 17 7 0 10 -262144 -1 -1 0
1;
#X connect 0 0 4 0;
#X connect 1 0 2 0;
#X connect 1 1 3 0;
#X connect 2 0 7 0;
#X connect 3 0 7 0;
#X connect 4 0 6 0;
#X connect 5 0 1 0;
#X connect 7 0 4 1;
#X coords 0 -1 1 1 85 25 1 100 100;
#X restore 612 264 pd sel01;
#N canvas 326 601 450 300 sel01 0;
#X obj 122 3 inlet;
#X obj 247 31 sel 0;
#X msg 225 58 0;
#X msg 275 57 1;
#X obj 49 133 spigot;
#X obj 240 5 inlet;
#X obj 47 203 outlet;
#X obj 165 105 tgl 15 0 empty empty empty 17 7 0 10 -262144 -1 -1 0
1;
#X connect 0 0 4 0;
#X connect 1 0 2 0;
#X connect 1 1 3 0;
#X connect 2 0 7 0;
#X connect 3 0 7 0;
#X connect 4 0 6 0;
#X connect 5 0 1 0;
#X connect 7 0 4 1;
#X coords 0 -1 1 1 85 25 1 100 100;
#X restore 521 265 pd sel01;
#N canvas 151 210 775 555 snowfield 0;
#X obj 140 54 inlet;
#X obj 293 90 inlet;
#X obj 214 514 outlet~;
#X obj 369 515 outlet~;
#X obj 181 288 bng 15 250 50 0 empty empty empty 17 7 0 10 -262144
-1 -1;
#X obj 338 258 bng 15 250 50 0 empty empty empty 17 7 0 10 -262144
-1 -1;
#X obj 490 212 random 20;
#X obj 490 237 + 32;
#X msg 492 328 playdiv \$1 \$2 2;
#X obj 491 260 t f b;
#X floatatom 491 285 5 0 0 0 - - -;
#X obj 527 285 random;
#X obj 491 304 list append;
#X obj 338 277 random 600;
#X floatatom 292 118 5 0 0 0 - - -;
#X obj 338 302 list prepend;
#X obj 334 329 list prepend playdiv;
#X obj 407 224 * 20;
#X obj 408 249 + 200;
#X obj 44 304 list prepend;
#X obj 44 329 list prepend playdiv;
#X obj 43 258 bng 15 250 50 0 empty empty empty 17 7 0 10 -262144 -1
-1;
#X obj 44 279 random;
#X obj 95 251 + 100;
#X obj 95 226 * 21;
#X floatatom 94 280 5 0 0 0 - - -;
#X floatatom 408 277 5 0 0 0 - - -;
#X obj 181 306 random 40;
#X msg 181 329 playdiv 40 \$1 1;
#X obj 140 100 random 10;
#X obj 140 77 t b;
#X obj 140 123 sel 0 1 2 3 4 5;
#X obj 489 193 bng 15 250 50 0 empty empty empty 17 7 0 10 -262144
-1 -1;
#X obj 253 428 g_vol2;
#X msg 324 455 95;
#X obj 324 433 loadbang;
#N canvas 0 22 557 459 volumeRandomise 0;
#X obj 159 255 outlet;
#X obj 147 60 bng 15 250 50 0 empty empty empty 17 7 0 10 -262144 -1
-1;
#X obj 147 81 t b b;
#X obj 136 185 select;
#X obj 105 103 random 100;
#X obj 145 125 pack;
#X obj 145 152 line 50;
#X floatatom 108 152 5 0 0 0 - - -;
#X obj 185 184 / 100;
#X obj 185 205 * 40;
#X obj 186 226 + 60;
#X obj 173 103 random 10000;
#X obj 146 39 loadbang;
#X connect 1 0 2 0;
#X connect 2 0 4 0;
#X connect 2 1 11 0;
#X connect 3 0 1 0;
#X connect 4 0 3 1;
#X connect 4 0 5 0;
#X connect 5 0 6 0;
#X connect 6 0 3 0;
#X connect 6 0 7 0;
#X connect 6 0 8 0;
#X connect 8 0 9 0;
#X connect 9 0 10 0;
#X connect 10 0 0 0;
#X connect 11 0 5 1;
#X connect 12 0 1 0;
#X restore 602 342 pd volumeRandomise;
#X floatatom 602 364 5 0 0 0 - - -;
#X msg 341 89 0.5;
#X obj 341 67 loadbang;
#X text 131 35 notes;
#X text 277 52 note duration;
#X text 665 59 volume;
#X obj 665 91 inlet;
#X obj 649 460 *;
#X obj 645 411 / 100;
#X obj 673 434 * 0.85;
#X floatatom 618 160 5 0 0 0 - - -;
#X obj 265 393 s_looper \$0-snowk snowkicking20110214.wav;
#X connect 0 0 30 0;
#X connect 1 0 14 0;
#X connect 4 0 27 0;
#X connect 5 0 13 0;
#X connect 6 0 7 0;
#X connect 7 0 9 0;
#X connect 7 0 11 1;
#X connect 7 0 12 0;
#X connect 8 0 48 0;
#X connect 9 0 10 0;
#X connect 9 1 11 0;
#X connect 11 0 12 1;
#X connect 12 0 8 0;
#X connect 13 0 15 0;
#X connect 14 0 17 0;
#X connect 14 0 24 0;
#X connect 15 0 16 0;
#X connect 16 0 48 0;
#X connect 17 0 18 0;
#X connect 18 0 13 1;
#X connect 18 0 15 1;
#X connect 18 0 26 0;
#X connect 19 0 20 0;
#X connect 20 0 48 0;
#X connect 21 0 22 0;
#X connect 22 0 19 0;
#X connect 23 0 22 1;
#X connect 23 0 19 1;
#X connect 23 0 25 0;
#X connect 24 0 23 0;
#X connect 27 0 28 0;
#X connect 28 0 48 0;
#X connect 29 0 31 0;
#X connect 30 0 29 0;
#X connect 31 0 21 0;
#X connect 31 1 21 0;
#X connect 31 2 5 0;
#X connect 31 3 5 0;
#X connect 31 4 4 0;
#X connect 31 5 32 0;
#X connect 32 0 6 0;
#X connect 33 0 2 0;
#X connect 33 1 3 0;
#X connect 34 0 33 2;
#X connect 35 0 34 0;
#X connect 36 0 37 0;
#X connect 37 0 44 0;
#X connect 38 0 14 0;
#X connect 39 0 38 0;
#X connect 43 0 45 0;
#X connect 43 0 47 0;
#X connect 44 0 33 2;
#X connect 45 0 46 0;
#X connect 46 0 44 1;
#X connect 48 0 33 0;
#X connect 48 0 33 1;
#X restore 611 315 pd snowfield;
#N canvas 872 195 774 753 icefield 0;
#X obj 107 189 inlet;
#X obj 236 184 inlet;
#X obj 267 717 outlet~;
#X obj 316 717 outlet~;
#X obj 148 416 random 32;
#X obj 148 398 bng 15 250 50 0 empty empty empty 17 7 0 10 -262144
-1 -1;
#X obj 305 368 bng 15 250 50 0 empty empty empty 17 7 0 10 -262144
-1 -1;
#X obj 457 322 random 20;
#X obj 457 347 + 32;
#X msg 459 438 playdiv \$1 \$2 2;
#X obj 458 370 t f b;
#X floatatom 458 395 5 0 0 0 - - -;
#X obj 494 395 random;
#X obj 458 414 list append;
#X obj 305 387 random 600;
#X floatatom 235 206 5 0 0 0 - - -;
#X obj 305 412 list prepend;
#X obj 301 439 list prepend playdiv;
#X obj 374 334 * 20;
#X obj 375 359 + 200;
#X obj 11 414 list prepend;
#X obj 11 439 list prepend playdiv;
#X obj 10 368 bng 15 250 50 0 empty empty empty 17 7 0 10 -262144 -1
-1;
#X obj 11 389 random;
#X obj 62 361 + 100;
#X obj 62 336 * 21;
#X msg 148 439 playdiv 32 \$1 1;
#X floatatom 61 390 5 0 0 0 - - -;
#X floatatom 375 387 5 0 0 0 - - -;
#X obj 282 663 g_vol2;
#X obj 415 525 loadbang;
#X obj 108 228 random 10;
#X obj 108 249 sel 0 1 2 3 4 5;
#X obj 457 304 bng 15 250 50 0 empty empty empty 17 7 0 10 -262144
-1 -1;
#X obj 107 209 t b;
#X text 59 153 notes;
#X text 235 148 note length;
#X text 403 161 volume;
#X obj 398 192 inlet;
#X obj 373 522 *;
#X obj 72 465 s_looper \$0-ice1 ice1-short-mono.wav;
#X obj 459 462 s_looper \$0-ice2 ice2-short-mono.wav;
#X obj 299 208 loadbang;
#X msg 301 238 0;
#X obj 115 555 / 100;
#X obj 84 613 e_pan;
#X obj 115 515 t b;
#X obj 538 536 / 100;
#X obj 507 594 e_pan;
#X obj 538 496 t b;
#X obj 115 576 + 0;
#X obj 115 535 random 60;
#X obj 538 557 + 0.4;
#X obj 538 516 random 60;
#X msg 415 547 0.9;
#X connect 0 0 34 0;
#X connect 1 0 15 0;
#X connect 4 0 26 0;
#X connect 5 0 4 0;
#X connect 5 0 46 0;
#X connect 6 0 14 0;
#X connect 6 0 49 0;
#X connect 7 0 8 0;
#X connect 8 0 10 0;
#X connect 8 0 12 1;
#X connect 8 0 13 0;
#X connect 9 0 41 0;
#X connect 10 0 11 0;
#X connect 10 1 12 0;
#X connect 12 0 13 1;
#X connect 13 0 9 0;
#X connect 14 0 16 0;
#X connect 15 0 18 0;
#X connect 15 0 25 0;
#X connect 16 0 17 0;
#X connect 17 0 41 0;
#X connect 18 0 19 0;
#X connect 19 0 14 1;
#X connect 19 0 16 1;
#X connect 19 0 28 0;
#X connect 20 0 21 0;
#X connect 21 0 40 0;
#X connect 22 0 23 0;
#X connect 22 0 46 0;
#X connect 23 0 20 0;
#X connect 24 0 23 1;
#X connect 24 0 20 1;
#X connect 24 0 27 0;
#X connect 25 0 24 0;
#X connect 26 0 40 0;
#X connect 29 0 2 0;
#X connect 29 1 3 0;
#X connect 30 0 54 0;
#X connect 31 0 32 0;
#X connect 32 0 22 0;
#X connect 32 1 22 0;
#X connect 32 2 5 0;
#X connect 32 3 5 0;
#X connect 32 4 6 0;
#X connect 32 5 33 0;
#X connect 33 0 7 0;
#X connect 33 0 49 0;
#X connect 34 0 31 0;
#X connect 38 0 39 0;
#X connect 39 0 29 2;
#X connect 40 0 45 0;
#X connect 41 0 48 0;
#X connect 42 0 43 0;
#X connect 43 0 15 0;
#X connect 44 0 50 0;
#X connect 45 0 29 0;
#X connect 45 1 29 1;
#X connect 46 0 51 0;
#X connect 47 0 52 0;
#X connect 48 0 29 0;
#X connect 48 1 29 1;
#X connect 49 0 53 0;
#X connect 50 0 45 1;
#X connect 51 0 44 0;
#X connect 52 0 48 1;
#X connect 53 0 47 0;
#X connect 54 0 39 1;
#X restore 71 406 pd icefield;
#N canvas 326 601 450 300 sel01 0;
#X obj 122 3 inlet;
#X obj 247 31 sel 0;
#X msg 225 58 0;
#X msg 275 57 1;
#X obj 49 133 spigot;
#X obj 240 5 inlet;
#X obj 47 203 outlet;
#X obj 165 105 tgl 15 0 empty empty empty 17 7 0 10 -262144 -1 -1 1
1;
#X connect 0 0 4 0;
#X connect 1 0 2 0;
#X connect 1 1 3 0;
#X connect 2 0 7 0;
#X connect 3 0 7 0;
#X connect 4 0 6 0;
#X connect 5 0 1 0;
#X connect 7 0 4 1;
#X coords 0 -1 1 1 85 25 1 100 100;
#X restore 25 373 pd sel01;
#N canvas 496 327 846 648 cym 0;
#X obj 214 26 inlet;
#X obj 225 126 bng 15 250 50 0 empty empty empty 17 7 0 10 -262144
-1 -1;
#X obj 182 373 s_playtable;
#X obj 103 258 random 50;
#X obj 103 301 / 100;
#X obj 103 233 bng 15 250 50 0 empty empty empty 17 7 0 10 -262144
-1 -1;
#X obj 103 327 list append;
#X obj 261 382 / 100;
#X obj 240 443 + -1;
#X obj 180 442 *~;
#X obj 211 441 *~;
#X obj 166 278 / 1000;
#X obj 103 347 list prepend;
#X obj 103 280 + 40;
#X obj 261 360 random 20;
#X obj 361 471 + 0.4;
#X obj 178 561 outlet~;
#X obj 311 561 outlet~;
#X msg 210 203 1-cym;
#X msg 255 202 2-cym;
#X text 573 20 hihat kind of bit;
#X obj 224 171 sel 0 1;
#X obj 226 147 random 2;
#X obj 379 301 random 2;
#X obj 364 331 spigot;
#X obj 415 325 * -1;
#X obj 419 352 + 1;
#X obj 401 379 spigot;
#X obj 236 417 t f;
#X obj 332 292 t b;
#X floatatom 318 431 5 0 0 0 - - -;
#X obj 415 405 * -1;
#X obj 389 405 + 1;
#X obj 165 258 random 1000;
#X obj 165 298 + 0.5;
#X obj 224 95 c_multipass;
#X obj 237 51 loadbang;
#X msg 237 73 52 41 54 65 72 64 69 67 65 70 78 67 80 75 78;
#X obj 179 478 g_vol2;
#X obj 254 478 loadbang;
#X msg 254 499 95;
#X obj 485 35 inlet;
#X obj 437 102 * 0.9;
#X obj 130 407 e_reverb cymverb;
#X obj 560 370 loadbang;
#X text 108 215 gain;
#X text 176 235 pitch;
#X obj 203 326 * 0.7;
#X msg 547 396 amp 100 \, hall 85 \, freq 6000 \, damp 60 \, dry 0.7
;
#X connect 0 0 35 0;
#X connect 1 0 5 0;
#X connect 1 0 22 0;
#X connect 2 0 43 0;
#X connect 3 0 13 0;
#X connect 4 0 6 0;
#X connect 5 0 3 0;
#X connect 5 0 14 0;
#X connect 5 0 33 0;
#X connect 6 0 12 0;
#X connect 7 0 24 0;
#X connect 7 0 27 0;
#X connect 7 0 29 0;
#X connect 8 0 10 1;
#X connect 9 0 38 0;
#X connect 10 0 38 1;
#X connect 11 0 34 0;
#X connect 12 0 2 0;
#X connect 13 0 4 0;
#X connect 14 0 7 0;
#X connect 15 0 9 1;
#X connect 15 0 8 0;
#X connect 18 0 12 1;
#X connect 19 0 12 1;
#X connect 21 0 18 0;
#X connect 21 1 19 0;
#X connect 22 0 21 0;
#X connect 23 0 24 1;
#X connect 23 0 25 0;
#X connect 24 0 28 0;
#X connect 24 0 30 0;
#X connect 25 0 26 0;
#X connect 26 0 27 1;
#X connect 27 0 31 0;
#X connect 28 0 8 0;
#X connect 28 0 9 1;
#X connect 29 0 23 0;
#X connect 31 0 32 0;
#X connect 32 0 30 0;
#X connect 32 0 28 0;
#X connect 33 0 11 0;
#X connect 34 0 47 0;
#X connect 35 0 1 0;
#X connect 36 0 37 0;
#X connect 37 0 35 1;
#X connect 38 0 16 0;
#X connect 38 1 17 0;
#X connect 39 0 40 0;
#X connect 40 0 38 2;
#X connect 41 0 42 0;
#X connect 42 0 38 2;
#X connect 43 0 9 0;
#X connect 43 1 10 0;
#X connect 44 0 48 0;
#X connect 47 0 6 1;
#X connect 48 0 43 1;
#X restore 25 406 pd cym;
#N canvas 697 107 484 607 drum 0;
#X obj 141 24 inlet;
#X obj 152 124 bng 15 250 50 0 empty empty empty 17 7 0 10 -262144
-1 -1;
#X obj 30 372 s_playtable;
#X obj 30 299 / 100;
#X obj 30 231 bng 15 250 50 0 empty empty empty 17 7 0 10 -262144 -1
-1;
#X obj 30 325 list append;
#X obj 143 397 / 100;
#X obj 185 422 + -1;
#X obj 44 444 *~;
#X obj 75 443 *~;
#X obj 256 269 / 1000;
#X obj 30 345 list prepend;
#X msg 129 199 3-drum;
#X msg 182 200 4-drum;
#X obj 143 375 random 20;
#X obj 185 398 + 0.4;
#X obj 43 554 outlet~;
#X obj 100 554 outlet~;
#X obj 151 148 random 2;
#X obj 151 169 sel 0 1;
#X obj 185 85 c_multipass;
#X obj 198 41 loadbang;
#X obj 60 482 g_vol2;
#X obj 3 482 loadbang;
#X msg 3 505 100;
#X obj 314 25 inlet;
#X text 327 6 volume;
#X obj 30 256 random 30;
#X obj 255 289 + 0.9;
#X obj 255 249 random 50;
#X text 30 197 gain;
#X text 97 237 pitch;
#X obj 30 278 + 70;
#X msg 198 63 99 5 5 5 85 5 5 85 5 5 40 40 95 5 5 5;
#X obj 273 311 / 3;
#X connect 0 0 20 0;
#X connect 1 0 4 0;
#X connect 1 0 13 0;
#X connect 2 0 9 0;
#X connect 2 0 8 0;
#X connect 3 0 5 0;
#X connect 4 0 14 0;
#X connect 4 0 27 0;
#X connect 4 0 29 0;
#X connect 5 0 11 0;
#X connect 6 0 15 0;
#X connect 7 0 9 1;
#X connect 8 0 22 0;
#X connect 9 0 22 1;
#X connect 10 0 28 0;
#X connect 11 0 2 0;
#X connect 12 0 11 1;
#X connect 13 0 11 1;
#X connect 14 0 6 0;
#X connect 15 0 8 1;
#X connect 15 0 7 0;
#X connect 18 0 19 0;
#X connect 19 0 12 0;
#X connect 19 1 13 0;
#X connect 20 0 1 0;
#X connect 21 0 33 0;
#X connect 22 0 16 0;
#X connect 22 1 17 0;
#X connect 23 0 24 0;
#X connect 24 0 22 2;
#X connect 25 0 22 2;
#X connect 27 0 32 0;
#X connect 28 0 34 0;
#X connect 29 0 10 0;
#X connect 32 0 3 0;
#X connect 33 0 20 1;
#X connect 34 0 5 1;
#X restore -26 406 pd drum;
#X obj 100 80 loadbang;
#X obj -7 125 r but1;
#X obj 26 434 g_vol2;
#X msg 97 467 100;
#X obj 97 447 loadbang;
#N canvas 727 49 477 425 clustermetro 0;
#X obj 303 241 bng 15 250 50 0 empty empty empty 17 7 0 10 -262144
-1 -1;
#X obj 247 264 + 1;
#X obj 211 109 t b b b b;
#X obj 201 15 bng 15 250 50 0 empty empty empty 17 7 0 10 -262144 -1
-1;
#X floatatom 256 287 5 0 0 0 - - -;
#X obj 247 244 random 6;
#X obj 67 123 delay 1000;
#X obj 66 97 random 8000;
#X obj 192 324 c_multimetro 16 200;
#X obj 192 298 tgl 15 0 empty empty empty 17 7 0 10 -262144 -1 -1 1
1;
#X obj 91 319 delay 10;
#X msg 149 325 stop;
#X floatatom 89 252 5 0 0 0 - - -;
#X obj 89 276 sel 15;
#X obj 83 299 bng 15 250 50 0 empty empty empty 17 7 0 10 -262144 -1
-1;
#X obj 102 297 t b;
#X msg 192 277 1;
#X obj 223 13 loadbang;
#X obj 192 346 outlet;
#X obj 157 14 inlet;
#N canvas 1012 38 445 814 createclusterrhythm 0;
#X obj 78 50 inlet;
#X obj 52 778 outlet;
#X obj 167 167 random 1000;
#X obj 167 187 + 50;
#X obj 68 140 t b b b b b b b b;
#X obj 148 211 random 1000;
#X obj 148 231 + 50;
#X obj 143 257 random 1000;
#X obj 143 277 + 50;
#X obj 122 296 random 1000;
#X obj 122 316 + 50;
#X obj 113 338 random 1000;
#X obj 113 358 + 50;
#X obj 104 382 random 1000;
#X obj 104 402 + 50;
#X obj 94 424 random 1000;
#X obj 94 444 + 50;
#X obj 93 478 list append;
#X obj 92 500 list append;
#X obj 95 522 list append;
#X obj 96 544 list append;
#X obj 94 567 list append;
#X obj 95 592 list append;
#X connect 0 0 4 0;
#X connect 2 0 3 0;
#X connect 3 0 22 1;
#X connect 4 1 15 0;
#X connect 4 2 13 0;
#X connect 4 3 11 0;
#X connect 4 4 9 0;
#X connect 4 5 7 0;
#X connect 4 6 5 0;
#X connect 4 7 2 0;
#X connect 5 0 6 0;
#X connect 6 0 21 1;
#X connect 7 0 8 0;
#X connect 8 0 20 1;
#X connect 9 0 10 0;
#X connect 10 0 19 1;
#X connect 11 0 12 0;
#X connect 12 0 18 1;
#X connect 13 0 14 0;
#X connect 14 0 17 1;
#X connect 15 0 16 0;
#X connect 16 0 17 0;
#X connect 17 0 18 0;
#X connect 18 0 19 0;
#X connect 19 0 20 0;
#X connect 20 0 21 0;
#X connect 21 0 22 0;
#X connect 22 0 1 0;
#X restore 303 262 pd createclusterrhythm;
#X obj 348 352 print rhythm:;
#X obj 46 124 bng 15 250 50 0 empty empty empty 17 7 0 10 -262144 -1
-1;
#X obj 345 321 spigot;
#X obj 374 293 tgl 15 0 empty empty empty 17 7 0 10 -262144 -1 -1 0
1;
#X connect 0 0 20 0;
#X connect 1 0 8 1;
#X connect 1 0 4 0;
#X connect 2 0 7 0;
#X connect 2 1 16 0;
#X connect 2 2 5 0;
#X connect 2 3 0 0;
#X connect 3 0 2 0;
#X connect 5 0 1 0;
#X connect 5 0 13 1;
#X connect 6 0 2 0;
#X connect 6 0 22 0;
#X connect 7 0 6 1;
#X connect 8 0 12 0;
#X connect 8 0 18 0;
#X connect 9 0 8 0;
#X connect 10 0 11 0;
#X connect 10 0 6 0;
#X connect 11 0 8 0;
#X connect 12 0 13 0;
#X connect 13 0 14 0;
#X connect 13 0 15 0;
#X connect 15 0 10 0;
#X connect 16 0 9 0;
#X connect 17 0 2 0;
#X connect 19 0 2 0;
#X connect 20 0 8 2;
#X connect 20 0 23 0;
#X connect 23 0 21 0;
#X connect 24 0 23 1;
#X restore 286 204 pd clustermetro;
#X obj 266 205 bng 15 250 50 0 empty empty empty 17 7 0 10 -262144
-1 -1;
#N canvas 326 601 450 300 sel01 0;
#X obj 122 3 inlet;
#X obj 247 31 sel 0;
#X msg 225 58 0;
#X msg 275 57 1;
#X obj 49 133 spigot;
#X obj 240 5 inlet;
#X obj 47 203 outlet;
#X obj 165 105 tgl 15 0 empty empty empty 17 7 0 10 -262144 -1 -1 0
1;
#X connect 0 0 4 0;
#X connect 1 0 2 0;
#X connect 1 1 3 0;
#X connect 2 0 7 0;
#X connect 3 0 7 0;
#X connect 4 0 6 0;
#X connect 5 0 1 0;
#X connect 7 0 4 1;
#X coords 0 -1 1 1 85 25 1 100 100;
#X restore 309 228 pd sel01;
#X obj 389 79 loadbang;
#X obj 292 120 r but2;
#N canvas 85 173 671 572 cymbals 0;
#X obj 88 87 inlet;
#X obj 234 99 inlet;
#X obj 154 552 outlet~;
#X obj 204 551 outlet~;
#X obj 137 271 bng 15 250 50 0 empty empty empty 17 7 0 10 -262144
-1 -1;
#X obj 294 241 bng 15 250 50 0 empty empty empty 17 7 0 10 -262144
-1 -1;
#X obj 446 195 random 20;
#X obj 446 220 + 32;
#X obj 447 243 t f b;
#X floatatom 447 268 5 0 0 0 - - -;
#X obj 483 268 random;
#X obj 447 287 list append;
#X obj 294 260 random 600;
#X floatatom 233 121 5 0 0 0 - - -;
#X obj 294 285 list prepend;
#X obj 290 312 list prepend playdiv;
#X obj 363 207 * 20;
#X obj 364 232 + 200;
#X obj 0 287 list prepend;
#X obj 0 312 list prepend playdiv;
#X obj 0 244 bng 15 250 50 0 empty empty empty 17 7 0 10 -262144 -1
-1;
#X obj 0 262 random;
#X obj 51 234 + 100;
#X obj 51 209 * 21;
#X floatatom 50 263 5 0 0 0 - - -;
#X floatatom 364 260 5 0 0 0 - - -;
#X obj 137 289 random 40;
#X obj 137 380 s_looper \$0-cymballong cymballong.wav;
#X obj 88 128 random 10;
#X obj 88 107 t b;
#X obj 88 149 sel 0 1 2 3 4 5;
#X obj 446 175 bng 15 250 50 0 empty empty empty 17 7 0 10 -262144
-1 -1;
#X text 72 52 note;
#X text 224 68 note length;
#X text 527 16 volume;
#X obj 530 33 inlet;
#X obj 168 497 g_vol2;
#X obj 296 83 loadbang;
#X msg 296 103 0;
#X obj 364 458 / 100;
#X obj 170 468 e_pan;
#X obj 364 418 t b;
#X obj 364 438 random 50;
#X obj 364 479 + 0.25;
#X obj 166 430 *~;
#X obj 181 403 c_adsr 1 20 0 100 500;
#X msg 448 311 playdiv \$1 \$2 5;
#X msg 137 312 playdiv 40 \$1 4;
#X obj 18 335 list append 4;
#X obj 290 333 list append 4;
#N canvas 793 64 557 459 volumeRandomise 0;
#X obj 159 255 outlet;
#X obj 147 60 bng 15 250 50 0 empty empty empty 17 7 0 10 -262144 -1
-1;
#X obj 147 81 t b b;
#X obj 136 185 select;
#X obj 105 103 random 100;
#X obj 145 125 pack;
#X obj 145 152 line 50;
#X floatatom 108 152 5 0 0 0 - - -;
#X obj 185 184 / 100;
#X obj 173 103 random 10000;
#X obj 146 39 loadbang;
#X obj 185 205 * 15;
#X obj 186 226 + 85;
#X connect 1 0 2 0;
#X connect 2 0 4 0;
#X connect 2 1 9 0;
#X connect 3 0 1 0;
#X connect 4 0 3 1;
#X connect 4 0 5 0;
#X connect 5 0 6 0;
#X connect 6 0 3 0;
#X connect 6 0 7 0;
#X connect 6 0 8 0;
#X connect 8 0 11 0;
#X connect 9 0 5 1;
#X connect 10 0 1 0;
#X connect 11 0 12 0;
#X connect 12 0 0 0;
#X restore 399 40 pd volumeRandomise;
#X floatatom 399 62 5 0 0 0 - - -;
#X obj 458 99 *;
#X obj 531 62 / 100;
#X obj 501 87 * 0.97;
#X connect 0 0 29 0;
#X connect 0 0 41 0;
#X connect 0 0 45 0;
#X connect 1 0 13 0;
#X connect 4 0 26 0;
#X connect 5 0 12 0;
#X connect 6 0 7 0;
#X connect 7 0 8 0;
#X connect 7 0 10 1;
#X connect 7 0 11 0;
#X connect 8 0 9 0;
#X connect 8 1 10 0;
#X connect 10 0 11 1;
#X connect 11 0 46 0;
#X connect 12 0 14 0;
#X connect 13 0 16 0;
#X connect 13 0 23 0;
#X connect 14 0 15 0;
#X connect 15 0 49 0;
#X connect 16 0 17 0;
#X connect 17 0 12 1;
#X connect 17 0 14 1;
#X connect 17 0 25 0;
#X connect 18 0 19 0;
#X connect 19 0 48 0;
#X connect 20 0 21 0;
#X connect 21 0 18 0;
#X connect 22 0 21 1;
#X connect 22 0 18 1;
#X connect 22 0 24 0;
#X connect 23 0 22 0;
#X connect 26 0 47 0;
#X connect 27 0 44 0;
#X connect 28 0 30 0;
#X connect 29 0 28 0;
#X connect 30 0 20 0;
#X connect 30 1 20 0;
#X connect 30 2 4 0;
#X connect 30 3 4 0;
#X connect 30 4 5 0;
#X connect 30 5 31 0;
#X connect 31 0 6 0;
#X connect 35 0 53 0;
#X connect 36 0 2 0;
#X connect 36 1 3 0;
#X connect 37 0 38 0;
#X connect 38 0 13 0;
#X connect 39 0 43 0;
#X connect 40 0 36 0;
#X connect 40 1 36 1;
#X connect 41 0 42 0;
#X connect 42 0 39 0;
#X connect 43 0 40 1;
#X connect 44 0 40 0;
#X connect 45 0 44 1;
#X connect 46 0 27 0;
#X connect 47 0 27 0;
#X connect 48 0 27 0;
#X connect 49 0 27 0;
#X connect 50 0 51 0;
#X connect 51 0 52 0;
#X connect 52 0 36 2;
#X connect 53 0 54 0;
#X connect 54 0 52 1;
#X restore 386 258 pd cymbals;
#N canvas 545 256 874 493 clusters 0;
#N canvas 1002 481 501 471 makebelnote 0;
#X obj 21 15 inlet;
#X obj 85 442 outlet;
#X obj 85 414 pack f f;
#X floatatom 55 229 5 0 0 0 - - -;
#X obj 54 162 bng 15 250 50 0 empty empty empty 17 7 0 10 -262144 -1
-1;
#X obj 54 184 random 7;
#X text 78 246 note;
#X obj 59 267 m_mixolydian 48;
#X obj 196 240 / 100;
#X obj 196 197 random 15;
#X obj 196 219 + 85;
#X obj 196 262 * 127;
#X obj 143 122 t b b;
#X obj 55 208 tabread \$0-cluster2;
#X connect 0 0 12 0;
#X connect 2 0 1 0;
#X connect 3 0 7 0;
#X connect 4 0 5 0;
#X connect 5 0 13 0;
#X connect 7 0 2 0;
#X connect 8 0 11 0;
#X connect 9 0 10 0;
#X connect 10 0 8 0;
#X connect 11 0 2 1;
#X connect 12 0 5 0;
#X connect 12 1 9 0;
#X connect 13 0 3 0;
#X restore 91 236 pd makebelnote;
#X obj 130 190 bng 15 250 50 0 empty empty empty 17 7 0 10 -262144
-1 -1;
#X obj 94 273 bellsynth;
#X obj 276 461 outlet~;
#X obj 328 460 outlet~;
#X obj 276 404 g_vol2;
#X obj 294 40 inlet;
#X text 272 21 note input;
#N canvas 1002 481 501 471 makebelnote 0;
#X obj 21 15 inlet;
#X obj 85 442 outlet;
#X obj 85 414 pack f f;
#X floatatom 55 229 5 0 0 0 - - -;
#X obj 54 162 bng 15 250 50 0 empty empty empty 17 7 0 10 -262144 -1
-1;
#X obj 54 184 random 7;
#X text 78 246 note;
#X obj 59 267 m_mixolydian 48;
#X obj 196 240 / 100;
#X obj 196 197 random 15;
#X obj 196 219 + 85;
#X obj 196 262 * 127;
#X obj 143 122 t b b;
#X obj 55 208 tabread \$0-cluster2;
#X connect 0 0 12 0;
#X connect 2 0 1 0;
#X connect 3 0 7 0;
#X connect 4 0 5 0;
#X connect 5 0 13 0;
#X connect 7 0 2 0;
#X connect 8 0 11 0;
#X connect 9 0 10 0;
#X connect 10 0 8 0;
#X connect 11 0 2 1;
#X connect 12 0 5 0;
#X connect 12 1 9 0;
#X connect 13 0 3 0;
#X restore 235 232 pd makebelnote;
#X obj 274 186 bng 15 250 50 0 empty empty empty 17 7 0 10 -262144
-1 -1;
#N canvas 1002 481 501 471 makebelnote 0;
#X obj 21 15 inlet;
#X obj 85 442 outlet;
#X obj 85 414 pack f f;
#X floatatom 55 229 5 0 0 0 - - -;
#X obj 54 162 bng 15 250 50 0 empty empty empty 17 7 0 10 -262144 -1
-1;
#X obj 54 184 random 7;
#X text 78 246 note;
#X obj 59 267 m_mixolydian 48;
#X obj 196 240 / 100;
#X obj 196 197 random 15;
#X obj 196 219 + 85;
#X obj 196 262 * 127;
#X obj 143 122 t b b;
#X obj 55 208 tabread \$0-cluster2;
#X connect 0 0 12 0;
#X connect 2 0 1 0;
#X connect 3 0 7 0;
#X connect 4 0 5 0;
#X connect 5 0 13 0;
#X connect 7 0 2 0;
#X connect 8 0 11 0;
#X connect 9 0 10 0;
#X connect 10 0 8 0;
#X connect 11 0 2 1;
#X connect 12 0 5 0;
#X connect 12 1 9 0;
#X connect 13 0 3 0;
#X restore 351 240 pd makebelnote;
#X obj 390 194 bng 15 250 50 0 empty empty empty 17 7 0 10 -262144
-1 -1;
#N canvas 1002 481 501 471 makebelnote 0;
#X obj 21 15 inlet;
#X obj 85 442 outlet;
#X obj 85 414 pack f f;
#X floatatom 55 229 5 0 0 0 - - -;
#X obj 54 162 bng 15 250 50 0 empty empty empty 17 7 0 10 -262144 -1
-1;
#X obj 54 184 random 7;
#X text 78 246 note;
#X obj 59 267 m_mixolydian 48;
#X obj 196 240 / 100;
#X obj 196 197 random 15;
#X obj 196 219 + 85;
#X obj 196 262 * 127;
#X obj 143 122 t b b;
#X obj 55 208 tabread \$0-cluster2;
#X connect 0 0 12 0;
#X connect 2 0 1 0;
#X connect 3 0 7 0;
#X connect 4 0 5 0;
#X connect 5 0 13 0;
#X connect 7 0 2 0;
#X connect 8 0 11 0;
#X connect 9 0 10 0;
#X connect 10 0 8 0;
#X connect 11 0 2 1;
#X connect 12 0 5 0;
#X connect 12 1 9 0;
#X connect 13 0 3 0;
#X restore 448 242 pd makebelnote;
#X obj 487 196 bng 15 250 50 0 empty empty empty 17 7 0 10 -262144
-1 -1;
#X obj 611 13 loadbang;
#X obj 618 84 table \$0-cluster2 7;
#X obj 615 63 s \$0-cluster2;
#N canvas 852 386 450 300 counter 0;
#X obj 28 19 inlet;
#X obj 98 73 + 1;
#X floatatom 45 97 5 0 0 0 - - -;
#X msg 95 119 set \$1;
#X obj 95 96 % 4;
#X obj 33 168 sel 0 1 2 3;
#X obj 22 245 outlet;
#X obj 58 242 outlet;
#X obj 102 239 outlet;
#X obj 147 238 outlet;
#X connect 0 0 2 0;
#X connect 1 0 4 0;
#X connect 2 0 1 0;
#X connect 2 0 5 0;
#X connect 3 0 2 0;
#X connect 4 0 3 0;
#X connect 5 0 6 0;
#X connect 5 1 7 0;
#X connect 5 2 8 0;
#X connect 5 3 9 0;
#X restore 292 65 pd counter;
#X obj 398 396 loadbang;
#X obj 468 393 inlet;
#X obj 238 269 bellsynth;
#X obj 354 277 bellsynth;
#X obj 451 279 bellsynth;
#X msg 398 418 95;
#N canvas 859 247 478 572 choosenotes 0;
#X obj 54 22 inlet;
#X obj 70 535 outlet;
#X obj 58 103 - 9;
#X obj 58 130 list append;
#X obj 58 163 list append;
#X obj 68 173 list append;
#X obj 78 183 list append;
#X obj 88 193 list append;
#X obj 98 203 list append;
#X obj 63 52 t b b b b b b b;
#X obj 121 103 - 9;
#X obj 185 102 - 9;
#X obj 185 153 - 9;
#X obj 251 153 - 9;
#X obj 317 153 - 9;
#X obj 382 152 - 9;
#X obj 58 81 random 15;
#X obj 121 81 random 12;
#X obj 185 80 random 14;
#X obj 185 131 random 13;
#X obj 251 131 random 9;
#X obj 317 131 random 17;
#X obj 382 130 random 15;
#X connect 0 0 9 0;
#X connect 2 0 3 0;
#X connect 3 0 4 0;
#X connect 4 0 5 0;
#X connect 5 0 6 0;
#X connect 6 0 7 0;
#X connect 7 0 8 0;
#X connect 8 0 1 0;
#X connect 9 0 16 0;
#X connect 9 1 17 0;
#X connect 9 2 18 0;
#X connect 9 3 19 0;
#X connect 9 4 20 0;
#X connect 9 5 21 0;
#X connect 9 6 22 0;
#X connect 10 0 3 1;
#X connect 11 0 4 1;
#X connect 12 0 5 1;
#X connect 13 0 6 1;
#X connect 14 0 7 1;
#X connect 15 0 8 1;
#X connect 16 0 2 0;
#X connect 17 0 10 0;
#X connect 18 0 11 0;
#X connect 19 0 12 0;
#X connect 20 0 13 0;
#X connect 21 0 14 0;
#X connect 22 0 15 0;
#X restore 613 40 pd choosenotes;
#X obj 776 22 bng 15 250 50 0 empty empty empty 17 7 0 10 -262144 -1
-1;
#X obj 698 184 notein;
#N canvas 149 373 450 300 note_distribute 0;
#X obj 89 26 inlet;
#X obj 153 27 inlet;
#X obj 45 258 outlet;
#X obj 107 61 pack f f;
#X obj 103 85 stripnote;
#X obj 127 257 outlet;
#X obj 244 260 outlet;
#X obj 313 257 outlet;
#X obj 248 106 + 1;
#X floatatom 195 130 5 0 0 0 - - -;
#X msg 245 152 set \$1;
#X obj 245 129 % 4;
#X obj 195 102 t b;
#X obj 84 210 route 0 1 2 3;
#X obj 98 145 pack f f;
#X obj 123 180 list prepend;
#X connect 0 0 3 0;
#X connect 1 0 3 1;
#X connect 3 0 4 0;
#X connect 4 0 14 0;
#X connect 4 1 12 0;
#X connect 4 1 14 1;
#X connect 8 0 11 0;
#X connect 9 0 8 0;
#X connect 9 0 15 1;
#X connect 10 0 9 0;
#X connect 11 0 10 0;
#X connect 12 0 9 0;
#X connect 13 0 2 0;
#X connect 13 1 5 0;
#X connect 13 2 6 0;
#X connect 13 3 7 0;
#X connect 14 0 15 0;
#X connect 15 0 13 0;
#X restore 665 263 pd note_distribute;
#X connect 0 0 2 0;
#X connect 1 0 0 0;
#X connect 2 0 5 0;
#X connect 2 1 5 1;
#X connect 5 0 3 0;
#X connect 5 1 4 0;
#X connect 6 0 17 0;
#X connect 8 0 20 0;
#X connect 9 0 8 0;
#X connect 10 0 21 0;
#X connect 11 0 10 0;
#X connect 12 0 22 0;
#X connect 13 0 12 0;
#X connect 14 0 24 0;
#X connect 17 0 1 0;
#X connect 17 1 9 0;
#X connect 17 2 11 0;
#X connect 17 3 13 0;
#X connect 18 0 23 0;
#X connect 19 0 5 2;
#X connect 20 0 5 0;
#X connect 20 1 5 1;
#X connect 21 0 5 0;
#X connect 21 1 5 1;
#X connect 22 0 5 0;
#X connect 22 1 5 1;
#X connect 23 0 5 2;
#X connect 24 0 16 0;
#X connect 25 0 24 0;
#X connect 26 0 27 0;
#X connect 26 1 27 1;
#X connect 27 0 22 0;
#X connect 27 1 21 0;
#X connect 27 2 20 0;
#X connect 27 3 2 0;
#X restore 309 257 pd clusters;
#N canvas 0 22 462 533 soundfiles 0;
#X obj 240 99 soundfiler;
#X obj 240 46 loadbang;
#X msg 240 73 read -resize cymTic.wav 1-cym;
#X obj 239 127 table 1-cym;
#X obj 245 215 soundfiler;
#X obj 245 162 loadbang;
#X msg 245 189 read -resize cymTuk.wav 2-cym;
#X obj 244 244 table 2-cym;
#X obj 11 101 soundfiler;
#X obj 11 48 loadbang;
#X msg 11 75 read -resize drumTonk.wav 3-drum;
#X obj 10 128 table 3-drum;
#X obj 14 212 soundfiler;
#X obj 14 159 loadbang;
#X msg 14 186 read -resize drumTung.wav 4-drum;
#X obj 13 239 table 4-drum;
#X obj 23 286 loadbang;
#X obj 23 328 soundfiler;
#X obj 24 366 table 0-cymbalNote;
#X msg 23 307 read -resize cymbalNote.wav 0-cymbalNote;
#X obj 20 400 declare -path percsamples;
#X obj 20 423 declare -path fieldrecordings;
#X obj 297 373 soundfiler;
#X obj 297 320 loadbang;
#X msg 297 347 read -resize almglockenC.wav 0-alm;
#X obj 296 401 table 0-alm;
#X text 296 294 Load Bell Sound;
#X connect 1 0 2 0;
#X connect 2 0 0 0;
#X connect 5 0 6 0;
#X connect 6 0 4 0;
#X connect 9 0 10 0;
#X connect 10 0 8 0;
#X connect 13 0 14 0;
#X connect 14 0 12 0;
#X connect 16 0 19 0;
#X connect 19 0 17 0;
#X connect 23 0 24 0;
#X connect 24 0 22 0;
#X restore 951 493 pd soundfiles;
#N canvas 727 49 477 425 clustermetro 0;
#X obj 303 241 bng 15 250 50 0 empty empty empty 17 7 0 10 -262144
-1 -1;
#X obj 247 264 + 1;
#X obj 211 109 t b b b b;
#X obj 201 15 bng 15 250 50 0 empty empty empty 17 7 0 10 -262144 -1
-1;
#X floatatom 256 287 5 0 0 0 - - -;
#X obj 247 244 random 6;
#X obj 67 123 delay 1000;
#X obj 192 324 c_multimetro 16 200;
#X obj 192 298 tgl 15 0 empty empty empty 17 7 0 10 -262144 -1 -1 1
1;
#X obj 91 319 delay 10;
#X msg 149 325 stop;
#X floatatom 89 252 5 0 0 0 - - -;
#X obj 89 276 sel 15;
#X obj 83 299 bng 15 250 50 0 empty empty empty 17 7 0 10 -262144 -1
-1;
#X obj 102 297 t b;
#X msg 192 277 1;
#X obj 223 13 loadbang;
#X obj 192 346 outlet;
#X obj 157 14 inlet;
#N canvas 1012 38 445 814 createclusterrhythm 0;
#X obj 78 50 inlet;
#X obj 52 778 outlet;
#X obj 167 167 random 1000;
#X obj 167 187 + 50;
#X obj 68 140 t b b b b b b b b;
#X obj 148 211 random 1000;
#X obj 148 231 + 50;
#X obj 143 257 random 1000;
#X obj 143 277 + 50;
#X obj 122 296 random 1000;
#X obj 122 316 + 50;
#X obj 113 338 random 1000;
#X obj 113 358 + 50;
#X obj 104 382 random 1000;
#X obj 104 402 + 50;
#X obj 94 424 random 1000;
#X obj 94 444 + 50;
#X obj 93 478 list append;
#X obj 92 500 list append;
#X obj 95 522 list append;
#X obj 96 544 list append;
#X obj 94 567 list append;
#X obj 95 592 list append;
#X connect 0 0 4 0;
#X connect 2 0 3 0;
#X connect 3 0 22 1;
#X connect 4 1 15 0;
#X connect 4 2 13 0;
#X connect 4 3 11 0;
#X connect 4 4 9 0;
#X connect 4 5 7 0;
#X connect 4 6 5 0;
#X connect 4 7 2 0;
#X connect 5 0 6 0;
#X connect 6 0 21 1;
#X connect 7 0 8 0;
#X connect 8 0 20 1;
#X connect 9 0 10 0;
#X connect 10 0 19 1;
#X connect 11 0 12 0;
#X connect 12 0 18 1;
#X connect 13 0 14 0;
#X connect 14 0 17 1;
#X connect 15 0 16 0;
#X connect 16 0 17 0;
#X connect 17 0 18 0;
#X connect 18 0 19 0;
#X connect 19 0 20 0;
#X connect 20 0 21 0;
#X connect 21 0 22 0;
#X connect 22 0 1 0;
#X restore 303 262 pd createclusterrhythm;
#X obj 348 352 print rhythm:;
#X obj 46 124 bng 15 250 50 0 empty empty empty 17 7 0 10 -262144 -1
-1;
#X obj 345 321 spigot;
#X obj 374 293 tgl 15 0 empty empty empty 17 7 0 10 -262144 -1 -1 0
1;
#X obj 66 97 random 5000;
#X connect 0 0 19 0;
#X connect 1 0 7 1;
#X connect 1 0 4 0;
#X connect 2 0 24 0;
#X connect 2 1 15 0;
#X connect 2 2 5 0;
#X connect 2 3 0 0;
#X connect 3 0 2 0;
#X connect 5 0 1 0;
#X connect 5 0 12 1;
#X connect 6 0 2 0;
#X connect 6 0 21 0;
#X connect 7 0 11 0;
#X connect 7 0 17 0;
#X connect 8 0 7 0;
#X connect 9 0 10 0;
#X connect 9 0 6 0;
#X connect 10 0 7 0;
#X connect 11 0 12 0;
#X connect 12 0 13 0;
#X connect 12 0 14 0;
#X connect 14 0 9 0;
#X connect 15 0 8 0;
#X connect 16 0 2 0;
#X connect 18 0 2 0;
#X connect 19 0 7 2;
#X connect 19 0 22 0;
#X connect 22 0 20 0;
#X connect 23 0 22 1;
#X connect 24 0 6 1;
#X restore 403 205 pd clustermetro;
#X obj 383 206 bng 15 250 50 0 empty empty empty 17 7 0 10 -262144
-1 -1;
#N canvas 326 601 450 300 sel01 0;
#X obj 122 3 inlet;
#X obj 247 31 sel 0;
#X msg 225 58 0;
#X msg 275 57 1;
#X obj 49 133 spigot;
#X obj 240 5 inlet;
#X obj 47 203 outlet;
#X obj 165 105 tgl 15 0 empty empty empty 17 7 0 10 -262144 -1 -1 0
1;
#X connect 0 0 4 0;
#X connect 1 0 2 0;
#X connect 1 1 3 0;
#X connect 2 0 7 0;
#X connect 3 0 7 0;
#X connect 4 0 6 0;
#X connect 5 0 1 0;
#X connect 7 0 4 1;
#X coords 0 -1 1 1 85 25 1 100 100;
#X restore 401 228 pd sel01;
#X obj 928 212 loadbang;
#X msg 928 234 500000;
#N canvas 326 601 450 300 sel01 0;
#X obj 122 3 inlet;
#X obj 247 31 sel 0;
#X msg 225 58 0;
#X msg 275 57 1;
#X obj 49 133 spigot;
#X obj 240 5 inlet;
#X obj 47 203 outlet;
#X obj 165 105 tgl 15 0 empty empty empty 17 7 0 10 -262144 -1 -1 0
1;
#X connect 0 0 4 0;
#X connect 1 0 2 0;
#X connect 1 1 3 0;
#X connect 2 0 7 0;
#X connect 3 0 7 0;
#X connect 4 0 6 0;
#X connect 5 0 1 0;
#X connect 7 0 4 1;
#X coords 0 -1 1 1 85 25 1 100 100;
#X restore 849 298 pd sel01;
#X obj 847 222 tgl 15 0 empty empty empty 17 7 0 10 -262144 -1 -1 0
1;
#N canvas 727 49 477 425 fastclustermetro 0;
#X obj 303 241 bng 15 250 50 0 empty empty empty 17 7 0 10 -262144
-1 -1;
#X obj 247 264 + 1;
#X obj 211 109 t b b b b;
#X obj 201 15 bng 15 250 50 0 empty empty empty 17 7 0 10 -262144 -1
-1;
#X floatatom 256 287 5 0 0 0 - - -;
#X obj 247 244 random 6;
#X obj 67 123 delay 1000;
#X obj 192 324 c_multimetro 16 200;
#X obj 192 298 tgl 15 0 empty empty empty 17 7 0 10 -262144 -1 -1 1
1;
#X obj 91 319 delay 10;
#X msg 149 325 stop;
#X floatatom 89 252 5 0 0 0 - - -;
#X obj 89 276 sel 15;
#X obj 83 299 bng 15 250 50 0 empty empty empty 17 7 0 10 -262144 -1
-1;
#X obj 102 297 t b;
#X msg 192 277 1;
#X obj 223 13 loadbang;
#X obj 192 346 outlet;
#X obj 157 14 inlet;
#N canvas 1012 38 445 814 createclusterrhythm 0;
#X obj 78 50 inlet;
#X obj 52 778 outlet;
#X obj 167 187 + 50;
#X obj 68 140 t b b b b b b b b;
#X obj 148 211 random 1000;
#X obj 148 231 + 50;
#X obj 143 277 + 50;
#X obj 122 316 + 50;
#X obj 113 358 + 50;
#X obj 104 402 + 50;
#X obj 94 444 + 50;
#X obj 93 478 list append;
#X obj 92 500 list append;
#X obj 95 522 list append;
#X obj 96 544 list append;
#X obj 94 567 list append;
#X obj 95 592 list append;
#X obj 167 167 random 200;
#X obj 143 257 random 500;
#X obj 122 296 random 350;
#X obj 113 338 random 500;
#X obj 104 382 random 450;
#X obj 94 424 random 350;
#X connect 0 0 3 0;
#X connect 2 0 16 1;
#X connect 3 1 22 0;
#X connect 3 2 21 0;
#X connect 3 3 20 0;
#X connect 3 4 19 0;
#X connect 3 5 18 0;
#X connect 3 6 4 0;
#X connect 3 7 17 0;
#X connect 4 0 5 0;
#X connect 5 0 15 1;
#X connect 6 0 14 1;
#X connect 7 0 13 1;
#X connect 8 0 12 1;
#X connect 9 0 11 1;
#X connect 10 0 11 0;
#X connect 11 0 12 0;
#X connect 12 0 13 0;
#X connect 13 0 14 0;
#X connect 14 0 15 0;
#X connect 15 0 16 0;
#X connect 16 0 1 0;
#X connect 17 0 2 0;
#X connect 18 0 6 0;
#X connect 19 0 7 0;
#X connect 20 0 8 0;
#X connect 21 0 9 0;
#X connect 22 0 10 0;
#X restore 303 262 pd createclusterrhythm;
#X obj 348 352 print rhythm:;
#X obj 46 124 bng 15 250 50 0 empty empty empty 17 7 0 10 -262144 -1
-1;
#X obj 345 321 spigot;
#X obj 374 293 tgl 15 0 empty empty empty 17 7 0 10 -262144 -1 -1 0
1;
#X obj 66 97 random 2000;
#X connect 0 0 19 0;
#X connect 1 0 7 1;
#X connect 1 0 4 0;
#X connect 2 0 24 0;
#X connect 2 1 15 0;
#X connect 2 2 5 0;
#X connect 2 3 0 0;
#X connect 3 0 2 0;
#X connect 5 0 1 0;
#X connect 5 0 12 1;
#X connect 6 0 2 0;
#X connect 6 0 21 0;
#X connect 7 0 11 0;
#X connect 7 0 17 0;
#X connect 8 0 7 0;
#X connect 9 0 10 0;
#X connect 9 0 6 0;
#X connect 10 0 7 0;
#X connect 11 0 12 0;
#X connect 12 0 13 0;
#X connect 12 0 14 0;
#X connect 14 0 9 0;
#X connect 15 0 8 0;
#X connect 16 0 2 0;
#X connect 18 0 2 0;
#X connect 19 0 7 2;
#X connect 19 0 22 0;
#X connect 22 0 20 0;
#X connect 23 0 22 1;
#X connect 24 0 6 1;
#X restore 838 277 pd fastclustermetro;
#N canvas 135 379 1386 380 icedrumcomposition 0;
#X obj 82 116 g_hsl comp 0 100;
#X msg 82 95 comp \$1;
#X obj 82 73 line;
#X msg 128 49 100 180000;
#X obj 82 147 route comp;
#X floatatom 83 169 5 0 0 0 - - -;
#X obj 128 28 bng 15 250 50 0 empty empty empty 17 7 0 10 -262144 -1
-1;
#X obj 82 30 bng 15 250 50 0 empty empty empty 17 7 0 10 -262144 -1
-1;
#X obj 59 -34 inlet;
#X obj 83 190 outlet;
#X obj 37 -33 tgl 15 0 empty empty empty 17 7 0 10 -262144 -1 -1 0
1;
#X obj 204 -26 inlet;
#X msg 204 5 set 100 \$1;
#X obj 109 7 sel 0 1;
#X text 14 -62 start \, stop/reset;
#X text 210 -61 set comp length;
#X text 81 211 composition position;
#X text 1165 210 option volume control;
#X obj 1169 183 outlet;
#X msg 1169 95 gain \$1;
#X obj 1196 11 sel 0 1;
#X msg 1169 41 0 60000;
#X obj 1169 73 line;
#X obj 1169 132 g_hsl gain 0 100;
#X msg 1225 42 100 5000;
#X obj 1169 163 route gain;
#X msg 82 49 0 0;
#X obj 284 181 outlet;
#X msg 284 93 gain \$1;
#X obj 284 71 line;
#X obj 284 130 g_hsl gain 0 100;
#X obj 284 161 route gain;
#X text 280 208 drum volume control;
#X obj 449 187 outlet;
#X msg 449 99 gain \$1;
#X obj 449 77 line;
#X obj 449 136 g_hsl gain 0 100;
#X obj 449 167 route gain;
#X text 445 214 cymbal volume control;
#X msg 284 40 100 10000;
#X msg 449 46 100 10000;
#X text 24 289 ice drum composition;
#X obj 630 194 outlet;
#X msg 630 106 gain \$1;
#X obj 630 84 line;
#X obj 630 143 g_hsl gain 0 100;
#X obj 630 174 route gain;
#X msg 630 53 100 10000;
#X text 626 221 cymbal notes volume control;
#X obj 657 22 sel 10 100 0;
#X msg 512 47 0 20000;
#X msg 693 54 0 20000;
#X msg 347 41 0 20000;
#X msg 33 136 0;
#X obj 476 15 sel 30 90 0;
#X obj 311 9 sel 40 80 0;
#X connect 0 0 4 0;
#X connect 1 0 0 0;
#X connect 2 0 1 0;
#X connect 3 0 2 0;
#X connect 4 0 5 0;
#X connect 4 0 49 0;
#X connect 4 0 54 0;
#X connect 4 0 55 0;
#X connect 5 0 9 0;
#X connect 6 0 3 0;
#X connect 7 0 26 0;
#X connect 8 0 13 0;
#X connect 8 0 20 0;
#X connect 10 0 13 0;
#X connect 10 0 20 0;
#X connect 11 0 12 0;
#X connect 12 0 3 0;
#X connect 13 0 7 0;
#X connect 13 1 6 0;
#X connect 19 0 23 0;
#X connect 20 0 21 0;
#X connect 20 1 24 0;
#X connect 21 0 22 0;
#X connect 22 0 19 0;
#X connect 23 0 25 0;
#X connect 24 0 22 0;
#X connect 25 0 18 0;
#X connect 26 0 2 0;
#X connect 26 0 53 0;
#X connect 28 0 30 0;
#X connect 29 0 28 0;
#X connect 30 0 31 0;
#X connect 31 0 27 0;
#X connect 34 0 36 0;
#X connect 35 0 34 0;
#X connect 36 0 37 0;
#X connect 37 0 33 0;
#X connect 39 0 29 0;
#X connect 40 0 35 0;
#X connect 43 0 45 0;
#X connect 44 0 43 0;
#X connect 45 0 46 0;
#X connect 46 0 42 0;
#X connect 47 0 44 0;
#X connect 49 0 47 0;
#X connect 49 1 51 0;
#X connect 49 2 51 0;
#X connect 50 0 35 0;
#X connect 51 0 44 0;
#X connect 52 0 29 0;
#X connect 53 0 9 0;
#X connect 54 0 40 0;
#X connect 54 1 50 0;
#X connect 54 2 50 0;
#X connect 55 0 39 0;
#X connect 55 1 52 0;
#X connect 55 2 52 0;
#X restore -7 148 pd icedrumcomposition;
#N canvas 412 52 193 220 icemetro 0;
#X obj -2 69 tgl 15 0 empty empty empty 17 7 0 10 -262144 -1 -1 1 1
;
#X obj -2 88 c_multimetro 16 187;
#X obj 20 68 loadbang;
#X obj 2 134 outlet;
#X connect 0 0 1 0;
#X connect 1 0 3 0;
#X connect 2 0 0 0;
#X restore 113 238 pd icemetro;
#N canvas 609 523 957 338 snowbellscomposition 0;
#X obj 82 116 g_hsl comp 0 100;
#X msg 82 95 comp \$1;
#X obj 82 73 line;
#X msg 128 49 100 360000;
#X obj 82 147 route comp;
#X floatatom 83 169 5 0 0 0 - - -;
#X obj 128 28 bng 15 250 50 0 empty empty empty 17 7 0 10 -262144 -1
-1;
#X obj 82 30 bng 15 250 50 0 empty empty empty 17 7 0 10 -262144 -1
-1;
#X obj 59 -34 inlet;
#X obj 83 190 outlet;
#X obj 37 -33 tgl 15 0 empty empty empty 17 7 0 10 -262144 -1 -1 0
1;
#X obj 204 -26 inlet;
#X msg 204 5 set 100 \$1;
#X obj 109 7 sel 0 1;
#X text 14 -62 start \, stop/reset;
#X text 210 -61 set comp length;
#X text 81 211 composition position;
#X msg 82 49 0 0;
#X obj 294 191 outlet;
#X msg 294 103 gain \$1;
#X msg 357 51 0 60000;
#X obj 294 81 line;
#X obj 294 140 g_hsl gain 0 100;
#X obj 294 171 route gain;
#X msg 294 50 100 10000;
#X obj 321 19 sel 1 100 0;
#X text 290 218 bells gain;
#X text 47 256 snow bells composition;
#X obj 439 191 outlet;
#X msg 439 103 gain \$1;
#X obj 439 81 line;
#X obj 439 140 g_hsl gain 0 100;
#X obj 439 171 route gain;
#X obj 466 19 sel 1 100 0;
#X text 435 218 snowfield gain;
#X msg 439 50 100 2000;
#X msg 502 51 0 5000;
#X msg 44 171 0;
#X connect 0 0 4 0;
#X connect 1 0 0 0;
#X connect 2 0 1 0;
#X connect 3 0 2 0;
#X connect 4 0 5 0;
#X connect 4 0 25 0;
#X connect 4 0 33 0;
#X connect 5 0 9 0;
#X connect 6 0 3 0;
#X connect 7 0 17 0;
#X connect 8 0 13 0;
#X connect 10 0 13 0;
#X connect 11 0 12 0;
#X connect 12 0 3 0;
#X connect 13 0 7 0;
#X connect 13 1 6 0;
#X connect 17 0 2 0;
#X connect 17 0 37 0;
#X connect 19 0 22 0;
#X connect 20 0 21 0;
#X connect 21 0 19 0;
#X connect 22 0 23 0;
#X connect 23 0 18 0;
#X connect 24 0 21 0;
#X connect 25 0 24 0;
#X connect 25 1 20 0;
#X connect 25 2 20 0;
#X connect 29 0 31 0;
#X connect 30 0 29 0;
#X connect 31 0 32 0;
#X connect 32 0 28 0;
#X connect 33 0 35 0;
#X connect 33 1 36 0;
#X connect 33 2 36 0;
#X connect 35 0 30 0;
#X connect 36 0 30 0;
#X connect 37 0 9 0;
#X restore 618 192 pd snowbellscomposition;
#N canvas 150 203 450 300 snowmetro 0;
#X obj 69 113 outlet;
#X obj 290 18 inlet;
#X obj 69 72 tgl 15 0 empty empty empty 17 7 0 10 -262144 -1 -1 1 1
;
#X obj 69 92 c_multimetro 16 187;
#X obj 69 50 loadbang;
#N canvas 754 22 791 512 rhythmChanger 0;
#X obj 343 21 inlet;
#X obj 323 323 outlet;
#X obj 20 146 bng 15 250 50 0 empty empty empty 17 7 0 10 -262144 -1
-1;
#X floatatom 19 252 5 0 0 0 - - -;
#X obj 19 185 bng 15 250 50 0 empty empty empty 17 7 0 10 -262144 -1
-1;
#X obj 19 208 bng 15 250 50 0 empty empty empty 17 7 0 10 -262144 -1
-1;
#X obj 38 185 delay 230000;
#X msg 38 145 187 120000;
#X obj 19 164 select 187;
#X obj 129 146 bng 15 250 50 0 empty empty empty 17 7 0 10 -262144
-1 -1;
#X floatatom 130 252 5 0 0 0 - - -;
#X obj 128 185 bng 15 250 50 0 empty empty empty 17 7 0 10 -262144
-1 -1;
#X obj 128 208 bng 15 250 50 0 empty empty empty 17 7 0 10 -262144
-1 -1;
#X obj 147 185 delay 230000;
#X msg 147 145 187 120000;
#X obj 128 164 select 187;
#X obj 232 144 bng 15 250 50 0 empty empty empty 17 7 0 10 -262144
-1 -1;
#X floatatom 233 250 5 0 0 0 - - -;
#X obj 231 183 bng 15 250 50 0 empty empty empty 17 7 0 10 -262144
-1 -1;
#X obj 231 206 bng 15 250 50 0 empty empty empty 17 7 0 10 -262144
-1 -1;
#X obj 250 183 delay 230000;
#X msg 250 143 187 120000;
#X obj 231 162 select 187;
#X obj 337 143 bng 15 250 50 0 empty empty empty 17 7 0 10 -262144
-1 -1;
#X floatatom 338 249 5 0 0 0 - - -;
#X obj 336 182 bng 15 250 50 0 empty empty empty 17 7 0 10 -262144
-1 -1;
#X obj 336 205 bng 15 250 50 0 empty empty empty 17 7 0 10 -262144
-1 -1;
#X obj 355 182 delay 230000;
#X msg 355 142 187 120000;
#X obj 336 161 select 187;
#X obj 435 144 bng 15 250 50 0 empty empty empty 17 7 0 10 -262144
-1 -1;
#X floatatom 436 250 5 0 0 0 - - -;
#X obj 434 183 bng 15 250 50 0 empty empty empty 17 7 0 10 -262144
-1 -1;
#X obj 434 206 bng 15 250 50 0 empty empty empty 17 7 0 10 -262144
-1 -1;
#X obj 453 183 delay 230000;
#X msg 453 143 187 120000;
#X obj 434 162 select 187;
#X obj 537 145 bng 15 250 50 0 empty empty empty 17 7 0 10 -262144
-1 -1;
#X floatatom 538 251 5 0 0 0 - - -;
#X obj 536 184 bng 15 250 50 0 empty empty empty 17 7 0 10 -262144
-1 -1;
#X obj 536 207 bng 15 250 50 0 empty empty empty 17 7 0 10 -262144
-1 -1;
#X obj 555 184 delay 230000;
#X msg 555 144 187 120000;
#X obj 536 163 select 187;
#X obj 640 146 bng 15 250 50 0 empty empty empty 17 7 0 10 -262144
-1 -1;
#X floatatom 641 252 5 0 0 0 - - -;
#X obj 639 185 bng 15 250 50 0 empty empty empty 17 7 0 10 -262144
-1 -1;
#X obj 639 208 bng 15 250 50 0 empty empty empty 17 7 0 10 -262144
-1 -1;
#X obj 658 185 delay 230000;
#X msg 658 145 187 120000;
#X obj 639 164 select 187;
#X obj 285 303 pack f f f f f f f;
#X obj 129 231 line 150 300;
#X obj 232 229 line 212 300;
#X obj 337 228 line 367 300;
#X obj 435 229 line 165 300;
#X obj 537 230 line 196 300;
#X obj 640 231 line 259 300;
#X obj 20 231 line 300 300;
#X msg 38 208 300 200000;
#X msg 147 208 150 180000;
#X msg 250 206 212 130000;
#X msg 355 206 367 100000;
#X msg 453 206 165 125000;
#X msg 555 207 196 135000;
#X msg 658 208 259 137000;
#X obj 343 41 sel 1 0;
#X text 458 11 sends slowly shifting period lists to c_multimetro;
#X text 460 33 starts and stop/resets by toggle through the inlet;
#X connect 0 0 66 0;
#X connect 2 0 7 0;
#X connect 3 0 51 0;
#X connect 4 0 6 0;
#X connect 6 0 59 0;
#X connect 6 0 5 0;
#X connect 7 0 58 0;
#X connect 8 0 4 0;
#X connect 9 0 14 0;
#X connect 10 0 51 1;
#X connect 11 0 13 0;
#X connect 13 0 60 0;
#X connect 13 0 12 0;
#X connect 14 0 52 0;
#X connect 15 0 11 0;
#X connect 16 0 21 0;
#X connect 17 0 51 2;
#X connect 18 0 20 0;
#X connect 20 0 61 0;
#X connect 20 0 19 0;
#X connect 21 0 53 0;
#X connect 22 0 18 0;
#X connect 23 0 28 0;
#X connect 24 0 51 3;
#X connect 25 0 27 0;
#X connect 27 0 62 0;
#X connect 27 0 26 0;
#X connect 28 0 54 0;
#X connect 29 0 25 0;
#X connect 30 0 35 0;
#X connect 31 0 51 4;
#X connect 32 0 34 0;
#X connect 34 0 63 0;
#X connect 34 0 33 0;
#X connect 35 0 55 0;
#X connect 36 0 32 0;
#X connect 37 0 42 0;
#X connect 38 0 51 5;
#X connect 39 0 41 0;
#X connect 41 0 64 0;
#X connect 41 0 40 0;
#X connect 42 0 56 0;
#X connect 43 0 39 0;
#X connect 44 0 49 0;
#X connect 45 0 51 6;
#X connect 46 0 48 0;
#X connect 48 0 65 0;
#X connect 48 0 47 0;
#X connect 49 0 57 0;
#X connect 50 0 46 0;
#X connect 51 0 1 0;
#X connect 52 0 10 0;
#X connect 52 0 15 0;
#X connect 53 0 17 0;
#X connect 53 0 22 0;
#X connect 54 0 24 0;
#X connect 54 0 29 0;
#X connect 55 0 31 0;
#X connect 55 0 36 0;
#X connect 56 0 38 0;
#X connect 56 0 43 0;
#X connect 57 0 45 0;
#X connect 57 0 50 0;
#X connect 58 0 3 0;
#X connect 58 0 8 0;
#X connect 59 0 58 0;
#X connect 60 0 52 0;
#X connect 61 0 53 0;
#X connect 62 0 54 0;
#X connect 63 0 55 0;
#X connect 64 0 56 0;
#X connect 65 0 57 0;
#X connect 66 0 2 0;
#X connect 66 0 9 0;
#X connect 66 0 16 0;
#X connect 66 0 23 0;
#X connect 66 0 30 0;
#X connect 66 0 37 0;
#X connect 66 0 44 0;
#X connect 66 1 5 0;
#X connect 66 1 12 0;
#X connect 66 1 19 0;
#X connect 66 1 26 0;
#X connect 66 1 33 0;
#X connect 66 1 40 0;
#X connect 66 1 47 0;
#X restore 136 71 pd rhythmChanger;
#X floatatom 120 113 5 0 0 0 - - -;
#X connect 1 0 5 0;
#X connect 2 0 3 0;
#X connect 3 0 6 0;
#X connect 3 0 0 0;
#X connect 4 0 2 0;
#X connect 5 0 3 2;
#X restore 529 233 pd snowmetro;
#N canvas 757 22 923 347 clusterscomposition 0;
#X obj 82 116 g_hsl comp 0 100;
#X msg 82 95 comp \$1;
#X obj 82 73 line;
#X msg 128 49 100 240000;
#X obj 82 147 route comp;
#X floatatom 83 169 5 0 0 0 - - -;
#X obj 128 28 bng 15 250 50 0 empty empty empty 17 7 0 10 -262144 -1
-1;
#X obj 82 30 bng 15 250 50 0 empty empty empty 17 7 0 10 -262144 -1
-1;
#X obj 59 -34 inlet;
#X obj 83 190 outlet;
#X obj 37 -33 tgl 15 0 empty empty empty 17 7 0 10 -262144 -1 -1 0
1;
#X obj 204 -26 inlet;
#X msg 204 5 set 100 \$1;
#X obj 109 7 sel 0 1;
#X text 14 -62 start \, stop/reset;
#X text 210 -61 set comp length;
#X text 81 211 composition position;
#X msg 82 49 0 0;
#X obj 283 186 outlet;
#X msg 283 98 gain \$1;
#X obj 283 76 line;
#X obj 283 135 g_hsl gain 0 100;
#X obj 283 166 route gain;
#X obj 310 14 sel 10 90 0;
#X obj 437 187 outlet;
#X msg 437 99 gain \$1;
#X obj 437 77 line;
#X obj 437 136 g_hsl gain 0 100;
#X obj 437 167 route gain;
#X text 279 213 cluster note volume;
#X text 433 215 cluster cymbal volume;
#X obj 464 15 sel 1 100 0;
#X msg 500 47 0 20000;
#X msg 346 46 0 20000;
#X msg 34 112 0;
#X msg 283 45 95 10000;
#X msg 437 46 100 5000;
#X connect 0 0 4 0;
#X connect 1 0 0 0;
#X connect 2 0 1 0;
#X connect 3 0 2 0;
#X connect 4 0 5 0;
#X connect 4 0 23 0;
#X connect 4 0 31 0;
#X connect 5 0 9 0;
#X connect 6 0 3 0;
#X connect 7 0 17 0;
#X connect 7 0 34 0;
#X connect 8 0 13 0;
#X connect 10 0 13 0;
#X connect 11 0 12 0;
#X connect 12 0 3 0;
#X connect 13 0 7 0;
#X connect 13 1 6 0;
#X connect 17 0 2 0;
#X connect 19 0 21 0;
#X connect 20 0 19 0;
#X connect 21 0 22 0;
#X connect 22 0 18 0;
#X connect 23 0 35 0;
#X connect 23 1 33 0;
#X connect 23 2 33 0;
#X connect 25 0 27 0;
#X connect 26 0 25 0;
#X connect 27 0 28 0;
#X connect 28 0 24 0;
#X connect 31 0 36 0;
#X connect 31 1 32 0;
#X connect 31 2 32 0;
#X connect 32 0 26 0;
#X connect 33 0 20 0;
#X connect 34 0 9 0;
#X connect 35 0 20 0;
#X connect 36 0 26 0;
#X restore 292 143 pd clusterscomposition;
#N canvas 119 330 846 648 cymNotes 0;
#X obj 98 29 inlet;
#X obj 101 55 bng 15 250 50 0 empty empty empty 17 7 0 10 -262144 -1
-1;
#X obj 182 373 s_playtable;
#X obj 103 202 random 50;
#X obj 103 245 / 100;
#X obj 103 177 bng 15 250 50 0 empty empty empty 17 7 0 10 -262144
-1 -1;
#X obj 103 327 list append;
#X obj 103 224 + 40;
#X obj 361 471 + 0.4;
#X obj 178 561 outlet~;
#X obj 311 561 outlet~;
#X obj 179 478 g_vol2;
#X obj 254 478 loadbang;
#X obj 641 127 inlet;
#X text 108 159 gain;
#X text 209 155 pitch;
#X obj 346 243 / 100;
#X obj 346 223 random 20;
#X obj 346 264 + 0.4;
#X obj 241 417 e_pan;
#X obj 346 203 t b;
#X obj 171 265 / 130.8;
#X obj 171 244 mtof;
#X obj 276 244 / 1000;
#X obj 171 305 * 1;
#X obj 275 224 random 15;
#X obj 275 264 + 0.99;
#X obj 171 285 * 1;
#X obj 173 201 random 7;
#X text 573 20 cymbal notes;
#X obj 103 347 list prepend 0-cymbalNote;
#X text 341 177 pan;
#X obj 172 224 m_minorscale 33;
#X obj 213 178 t b b;
#X msg 254 499 80;
#X obj 640 147 * 0.8;
#X obj 100 78 c_pass 8;
#X connect 0 0 1 0;
#X connect 1 0 36 0;
#X connect 2 0 19 0;
#X connect 3 0 7 0;
#X connect 4 0 6 0;
#X connect 5 0 3 0;
#X connect 5 0 20 0;
#X connect 5 0 33 0;
#X connect 6 0 30 0;
#X connect 7 0 4 0;
#X connect 11 0 9 0;
#X connect 11 1 10 0;
#X connect 12 0 34 0;
#X connect 13 0 35 0;
#X connect 16 0 18 0;
#X connect 17 0 16 0;
#X connect 18 0 19 1;
#X connect 19 0 11 0;
#X connect 19 1 11 1;
#X connect 20 0 17 0;
#X connect 21 0 27 0;
#X connect 22 0 21 0;
#X connect 23 0 26 0;
#X connect 24 0 6 1;
#X connect 25 0 23 0;
#X connect 26 0 24 1;
#X connect 27 0 24 0;
#X connect 28 0 32 0;
#X connect 30 0 2 0;
#X connect 32 0 22 0;
#X connect 33 0 28 0;
#X connect 33 1 25 0;
#X connect 34 0 11 2;
#X connect 35 0 11 2;
#X connect 36 0 5 0;
#X restore 152 408 pd cymNotes;
#X text 931 193 default;
#X msg 818 162 1;
#X obj 290 169 s clustercomp;
#X obj -6 171 s icedrumcomp;
#X obj 617 214 s snowbellcomp;
#X msg 853 163 0;
#X floatatom 844 352 5 0 0 0 - - -;
#X obj 819 128 sel 0 1;
#X obj 695 35 sel 1;
#X floatatom 703 285 5 0 0 0 - - -;
#X obj 635 295 t b;
#X obj 846 329 t b;
#X msg 882 353 set \$1;
#X msg 703 263 set \$1;
#N canvas 539 238 519 343 defaultcomposition 0;
#X obj 82 116 g_hsl comp 0 100;
#X msg 82 95 comp \$1;
#X obj 82 73 line;
#X msg 128 49 100 500000;
#X obj 82 147 route comp;
#X floatatom 83 169 5 0 0 0 - - -;
#X obj 128 28 bng 15 250 50 0 empty empty empty 17 7 0 10 -262144 -1
-1;
#X obj 82 30 bng 15 250 50 0 empty empty empty 17 7 0 10 -262144 -1
-1;
#X obj 59 -34 inlet;
#X obj 83 190 outlet;
#X obj 37 -33 tgl 15 0 empty empty empty 17 7 0 10 -262144 -1 -1 0
1;
#X obj 204 -26 inlet;
#X msg 204 5 set 100 \$1;
#X obj 109 7 sel 0 1;
#X text 14 -62 start \, stop/reset;
#X text 210 -61 set comp length;
#X text 81 211 composition position;
#X obj 289 182 outlet;
#X msg 289 94 gain \$1;
#X obj 316 10 sel 0 1;
#X obj 289 72 line;
#X obj 289 131 g_hsl gain 0 100;
#X obj 289 162 route gain;
#X msg 82 49 0 0;
#X text 285 209 snow field volume;
#X msg 289 40 0 10000;
#X msg 345 41 95 10000;
#X connect 0 0 4 0;
#X connect 1 0 0 0;
#X connect 2 0 1 0;
#X connect 3 0 2 0;
#X connect 4 0 5 0;
#X connect 5 0 9 0;
#X connect 6 0 3 0;
#X connect 7 0 23 0;
#X connect 8 0 13 0;
#X connect 8 0 19 0;
#X connect 10 0 13 0;
#X connect 10 0 19 0;
#X connect 11 0 12 0;
#X connect 12 0 3 0;
#X connect 13 0 7 0;
#X connect 13 1 6 0;
#X connect 18 0 21 0;
#X connect 19 0 25 0;
#X connect 19 1 26 0;
#X connect 20 0 18 0;
#X connect 21 0 22 0;
#X connect 22 0 17 0;
#X connect 23 0 2 0;
#X connect 25 0 20 0;
#X connect 26 0 20 0;
#X restore 847 254 pd defaultcomposition;
#X msg 695 58 1;
#N canvas 216 353 195 159 output 0;
#X obj 16 12 inlet~;
#X obj 106 13 inlet~;
#X obj 16 38 hip~ 1;
#X obj 16 63 clip~ -1 1;
#X obj 30 128 dac~;
#X obj 106 37 hip~ 1;
#X obj 106 62 clip~ -1 1;
#X connect 0 0 2 0;
#X connect 1 0 5 0;
#X connect 2 0 3 0;
#X connect 3 0 4 0;
#X connect 5 0 6 0;
#X connect 6 0 4 1;
#X restore 374 693 pd output;
#X obj -25 46 hsl 128 15 0 127 0 0 empty empty empty -2 -8 0 10 -262144
-1 -1 10000 1;
#X obj -28 24 r icedrumcomp;
#X obj 120 46 hsl 128 15 0 127 0 0 empty empty empty -2 -8 0 10 -262144
-1 -1 0 1;
#X obj 117 24 r clustercomp;
#X obj 258 46 hsl 128 15 0 127 0 0 empty empty empty -2 -8 0 10 -262144
-1 -1 0 1;
#X obj 255 24 r snowbellcomp;
#X obj 395 46 hsl 128 15 0 127 0 0 empty empty empty -2 -8 0 10 -262144
-1 -1 0 1;
#X obj 578 -30 r icedrumswitchin;
#X obj 693 -28 r clusterswitchin;
#X obj 808 -27 r snowbellswitchin;
#X obj 933 -26 r fxswitchin;
#X text -36 -44 Nordlig Vinter - Charles Martin - nordligvinter_main.pd
- Performance Version!;
#N canvas 0 22 450 300 reverbauxstrip 0;
#X obj -84 99 e_reverb bellverb;
#X obj 31 77 loadbang;
#X msg 31 98 amp 95 \, hall 85 \, freq 6000 \, damp 60 \, dry 0;
#X obj -71 23 inlet~;
#X obj -55 170 outlet~;
#X obj 17 167 outlet~;
#X connect 0 0 4 0;
#X connect 0 1 5 0;
#X connect 1 0 2 0;
#X connect 2 0 0 1;
#X connect 3 0 0 0;
#X restore 535 659 pd reverbauxstrip;
#X obj 851 411 s snowbackground;
#X obj 392 25 r snowbackground;
#X floatatom 860 386 5 0 0 0 - - -;
#N canvas 803 307 450 300 input 0;
#X obj 2 12 adc~;
#X obj 12 98 *~;
#X msg 120 114 0;
#X msg 218 115 1;
#X obj 118 93 loadbang;
#X obj 17 165 outlet~;
#X obj 141 8 r but4;
#X obj 141 44 sel 0 1;
#X obj 320 82 env~;
#X obj 320 142 s inputvolume;
#X floatatom 320 122 5 0 0 0 - - -;
#X obj 320 102 / 100;
#X obj 3 34 g_vol2;
#X obj 80 10 loadbang;
#X msg 80 32 85;
#X obj 218 13 r reverbsend;
#X obj 243 158 bonk~;
#X obj 241 183 t b;
#N canvas 138 457 450 300 16_counter 0;
#X obj 28 19 inlet;
#X obj 98 73 + 1;
#X floatatom 45 97 5 0 0 0 - - -;
#X msg 95 119 set \$1;
#X obj 22 245 outlet;
#X obj 95 96 % 16;
#X connect 0 0 2 0;
#X connect 1 0 5 0;
#X connect 2 0 1 0;
#X connect 2 0 4 0;
#X connect 3 0 2 0;
#X connect 5 0 3 0;
#X restore 240 207 pd 16_counter;
#X obj 241 230 s attackCounter;
#X msg 138 221 minvel 25;
#X obj 137 192 loadbang;
#X connect 0 0 12 0;
#X connect 0 0 16 0;
#X connect 0 1 12 1;
#X connect 1 0 5 0;
#X connect 1 0 8 0;
#X connect 2 0 1 1;
#X connect 2 0 9 0;
#X connect 3 0 1 1;
#X connect 4 0 2 0;
#X connect 6 0 7 0;
#X connect 7 0 2 0;
#X connect 7 1 3 0;
#X connect 8 0 11 0;
#X connect 10 0 9 0;
#X connect 11 0 10 0;
#X connect 12 0 1 0;
#X connect 12 1 1 0;
#X connect 13 0 14 0;
#X connect 14 0 12 2;
#X connect 15 0 12 2;
#X connect 16 1 17 0;
#X connect 17 0 18 0;
#X connect 18 0 19 0;
#X connect 20 0 16 0;
#X connect 21 0 20 0;
#X restore 552 636 pd input;
#X obj 137 102 r icedrumlength;
#X obj 422 101 r clusterslength;
#X obj 669 145 r snowbellslength;
#X obj 137 129 * 1000;
#X obj 422 121 * 1000;
#X obj 669 167 * 1000;
#X msg 100 102 180;
#X msg 389 101 240;
#X msg 637 144 360;
#X obj 11 236 r attackCounter;
#X obj 30 284 dual_random_pass;
#X obj 8 195 / 100;
#X connect 2 0 6 0;
#X connect 2 0 58 0;
#X connect 3 0 7 0;
#X connect 3 0 59 0;
#X connect 4 0 8 0;
#X connect 4 0 58 0;
#X connect 5 0 9 0;
#X connect 10 0 67 0;
#X connect 10 0 80 0;
#X connect 10 1 67 1;
#X connect 10 1 80 0;
#X connect 11 0 93 0;
#X connect 16 0 47 0;
#X connect 16 0 48 0;
#X connect 17 0 19 0;
#X connect 17 0 61 0;
#X connect 18 0 10 0;
#X connect 19 0 67 0;
#X connect 19 1 67 1;
#X connect 20 0 26 0;
#X connect 20 1 26 1;
#X connect 21 0 23 0;
#X connect 21 0 22 0;
#X connect 21 0 20 0;
#X connect 21 0 50 0;
#X connect 22 0 26 0;
#X connect 22 1 26 1;
#X connect 23 0 26 0;
#X connect 23 1 26 1;
#X connect 24 0 91 0;
#X connect 25 0 45 0;
#X connect 26 0 67 0;
#X connect 26 1 67 1;
#X connect 27 0 26 2;
#X connect 28 0 27 0;
#X connect 29 0 30 0;
#X connect 29 0 31 0;
#X connect 31 0 35 0;
#X connect 32 0 92 0;
#X connect 33 0 49 0;
#X connect 34 0 80 0;
#X connect 34 0 67 0;
#X connect 34 1 80 0;
#X connect 34 1 67 1;
#X connect 35 0 80 0;
#X connect 35 0 67 0;
#X connect 35 1 80 0;
#X connect 35 1 67 1;
#X connect 37 0 38 0;
#X connect 37 0 39 0;
#X connect 39 0 34 0;
#X connect 40 0 41 0;
#X connect 40 0 43 0;
#X connect 41 0 65 1;
#X connect 42 0 19 0;
#X connect 42 0 62 0;
#X connect 43 0 65 0;
#X connect 44 0 42 0;
#X connect 45 0 54 0;
#X connect 45 0 96 0;
#X connect 45 1 23 1;
#X connect 45 2 22 1;
#X connect 45 3 50 1;
#X connect 45 4 21 1;
#X connect 45 4 20 2;
#X connect 46 0 95 0;
#X connect 47 0 10 1;
#X connect 47 0 55 0;
#X connect 47 1 10 2;
#X connect 47 1 18 1;
#X connect 47 2 17 1;
#X connect 47 2 64 0;
#X connect 48 0 18 0;
#X connect 48 0 17 0;
#X connect 49 0 53 0;
#X connect 49 1 31 1;
#X connect 49 1 35 1;
#X connect 49 2 39 1;
#X connect 49 2 34 2;
#X connect 50 0 26 0;
#X connect 50 0 80 0;
#X connect 50 1 26 1;
#X connect 50 1 80 0;
#X connect 52 0 43 0;
#X connect 56 0 43 0;
#X connect 57 0 19 2;
#X connect 58 0 52 0;
#X connect 58 1 56 0;
#X connect 59 0 66 0;
#X connect 60 0 19 2;
#X connect 61 0 60 0;
#X connect 62 0 57 0;
#X connect 63 0 57 0;
#X connect 64 0 60 0;
#X connect 65 0 42 1;
#X connect 65 1 63 0;
#X connect 65 1 83 0;
#X connect 66 0 43 0;
#X connect 69 0 68 0;
#X connect 71 0 70 0;
#X connect 73 0 72 0;
#X connect 75 0 2 0;
#X connect 76 0 3 0;
#X connect 77 0 4 0;
#X connect 78 0 5 0;
#X connect 80 0 67 0;
#X connect 80 1 67 1;
#X connect 82 0 74 0;
#X connect 83 0 81 0;
#X connect 84 0 80 0;
#X connect 85 0 88 0;
#X connect 86 0 89 0;
#X connect 87 0 90 0;
#X connect 88 0 45 1;
#X connect 89 0 49 1;
#X connect 90 0 47 1;
#X connect 91 0 88 0;
#X connect 92 0 89 0;
#X connect 93 0 90 0;
#X connect 94 0 95 1;
#X connect 95 0 21 0;
#X connect 96 0 95 2;
